  0
SECTION
  2
HEADER
  9
$ACADVER
  1
AC1009
  9
$FILLMODE
 70
1
  9
$EXTMIN
 10
-4.5589
 20
-5.8287
 30
0.0000
  9
$EXTMAX
 10
62.6724
 20
85.5859
 30
0.0000
  0
ENDSEC
  0
SECTION
  2
TABLES
  0
TABLE
  2
LTYPE
 70
1
  0
LTYPE
  2
CONTINUOUS
 70
64
  3
Solid line
 72
65
 73
0
 40
0
  0
ENDTAB
  0
TABLE
  2
LAYER
 70
255
  0
LAYER
  2
17
 70
64
 62
82
  6
CONTINUOUS
  0
LAYER
  2
20
 70
64
 62
7
  6
CONTINUOUS
  0
LAYER
  2
21
 70
64
 62
253
  6
CONTINUOUS
  0
LAYER
  2
29
 70
64
 62
253
  6
CONTINUOUS
  0
LAYER
  2
44
 70
64
 62
253
  6
CONTINUOUS
  0
LAYER
  2
48
 70
64
 62
253
  6
CONTINUOUS
  0
ENDTAB
  0
ENDSEC
  0
SECTION
  2
BLOCKS
  0
BLOCK
  8
0
  2
RECT
 70
64
 10
0.0000
 20
0.0000
 30
0.0000
  3
RECT
  0
SOLID
  8
0
 10
-0.5000
 20
-0.5000
 30
0.0000
 11
0.5000
 21
-0.5000
 31
0.0000
 12
-0.5000
 22
0.5000
 32
0.0000
 13
0.5000
 23
0.5000
 33
0.0000
  0
ENDBLK
  8
0
  0
BLOCK
  8
0
  2
PIE
 70
64
 10
0.0000
 20
0.0000
 30
0.0000
  3
PIE
  0
POLYLINE
  8
0
 66
1
 10
0.0000
 20
0.0000
 30
0.0000
 40
0.5000
 41
0.5000
 70
0
  0
VERTEX
  8
0
 10
0.0000
 20
-0.2500
 30
0.0000
 42
1.0000
  0
VERTEX
  8
0
 10
0.0000
 20
0.2500
 30
0.0000
 42
1.0000
  0
VERTEX
  8
0
 10
0.0000
 20
-0.2500
 30
0.0000
  0
SEQEND
  8
0
  0
ENDBLK
  8
0
  0
BLOCK
  8
0
  2
OCTAGONP
 70
64
 10
0.0000
 20
0.0000
 30
0.0000
  3
OCTAGONP
  0
POLYLINE
  8
0
 66
1
 10
0.0000
 20
0.0000
 30
0.0000
 40
0.5000
 41
0.5000
 70
0
  0
VERTEX
  8
0
 10
-0.2500
 20
-0.1036
 30
0.0000
  0
VERTEX
  8
0
 10
-0.2500
 20
0.1036
 30
0.0000
  0
VERTEX
  8
0
 10
-0.1036
 20
0.2500
 30
0.0000
  0
VERTEX
  8
0
 10
0.1036
 20
0.2500
 30
0.0000
  0
VERTEX
  8
0
 10
0.2500
 20
0.1036
 30
0.0000
  0
VERTEX
  8
0
 10
0.2500
 20
-0.1036
 30
0.0000
  0
VERTEX
  8
0
 10
0.1036
 20
-0.2500
 30
0.0000
  0
VERTEX
  8
0
 10
-0.1036
 20
-0.2500
 30
0.0000
  0
VERTEX
  8
0
 10
-0.2500
 20
-0.1036
 30
0.0000
  0
VERTEX
  8
0
 10
-0.2500
 20
0.1036
 30
0.0000
  0
SEQEND
  8
0
  0
ENDBLK
  8
0
  0
BLOCK
  8
0
  2
SQUAREP
 70
64
 10
0.0000
 20
0.0000
 30
0.0000
  3
SQUAREP
  0
SOLID
  8
0
 10
-0.5000
 20
-0.5000
 30
0.0000
 11
0.5000
 21
-0.5000
 31
0.0000
 12
-0.5000
 22
0.5000
 32
0.0000
 13
0.5000
 23
0.5000
 33
0.0000
  0
ENDBLK
  8
0
  0
BLOCK
  8
0
  2
ROUNDP
 70
64
 10
0.0000
 20
0.0000
 30
0.0000
  3
ROUNDP
  0
POLYLINE
  8
0
 66
1
 10
0.0000
 20
0.0000
 30
0.0000
 40
0.5000
 41
0.5000
 70
0
  0
VERTEX
  8
0
 10
0.0000
 20
-0.2500
 30
0.0000
 42
1.0000
  0
VERTEX
  8
0
 10
0.0000
 20
0.2500
 30
0.0000
 42
1.0000
  0
VERTEX
  8
0
 10
0.0000
 20
-0.2500
 30
0.0000
  0
SEQEND
  8
0
  0
ENDBLK
  8
0
  0
BLOCK
  8
0
  2
ANNULUSP
 70
64
 10
0.0000
 20
0.0000
 30
0.0000
  3
ANNULUSP
  0
POLYLINE
  8
0
 66
1
 10
0.0000
 20
0.0000
 30
0.0000
 40
0.5000
 41
0.5000
 70
0
  0
VERTEX
  8
0
 10
0.0000
 20
-0.2500
 30
0.0000
 42
1.0000
  0
VERTEX
  8
0
 10
0.0000
 20
0.2500
 30
0.0000
 42
1.0000
  0
VERTEX
  8
0
 10
0.0000
 20
-0.2500
 30
0.0000
  0
SEQEND
  8
0
  0
ENDBLK
  8
0
  0
BLOCK
  8
0
  2
THERMALP
 70
64
 10
0.0000
 20
0.0000
 30
0.0000
  3
THERMALP
  0
POLYLINE
  8
0
 66
1
 10
0.0000
 20
0.0000
 30
0.0000
 40
0.1000
 41
0.1000
 70
0
  0
VERTEX
  8
0
 10
-0.2379
 20
0.4500
 30
0.0000
  0
VERTEX
  8
0
 10
0.2379
 20
0.4500
 30
0.0000
  0
SEQEND
  8
0
  0
POLYLINE
  8
0
 66
1
 10
0.0000
 20
0.0000
 30
0.0000
 40
0.0500
 41
0.0500
 70
0
  0
VERTEX
  8
0
 10
0.2379
 20
0.4250
 30
0.0000
 42
1.0000
  0
VERTEX
  8
0
 10
0.2379
 20
0.4750
 30
0.0000
  0
SEQEND
  8
0
  0
POLYLINE
  8
0
 66
1
 10
0.0000
 20
0.0000
 30
0.0000
 40
0.0500
 41
0.0500
 70
0
  0
VERTEX
  8
0
 10
-0.2379
 20
0.4750
 30
0.0000
 42
1.0000
  0
VERTEX
  8
0
 10
-0.2379
 20
0.4250
 30
0.0000
  0
SEQEND
  8
0
  0
POLYLINE
  8
0
 66
1
 10
0.0000
 20
0.0000
 30
0.0000
 40
0.1000
 41
0.1000
 70
0
  0
VERTEX
  8
0
 10
0.4500
 20
0.2379
 30
0.0000
  0
VERTEX
  8
0
 10
0.4500
 20
-0.2379
 30
0.0000
  0
SEQEND
  8
0
  0
POLYLINE
  8
0
 66
1
 10
0.0000
 20
0.0000
 30
0.0000
 40
0.0500
 41
0.0500
 70
0
  0
VERTEX
  8
0
 10
0.4250
 20
-0.2379
 30
0.0000
 42
1.0000
  0
VERTEX
  8
0
 10
0.4750
 20
-0.2379
 30
0.0000
  0
SEQEND
  8
0
  0
POLYLINE
  8
0
 66
1
 10
0.0000
 20
0.0000
 30
0.0000
 40
0.0500
 41
0.0500
 70
0
  0
VERTEX
  8
0
 10
0.4750
 20
0.2379
 30
0.0000
 42
1.0000
  0
VERTEX
  8
0
 10
0.4250
 20
0.2379
 30
0.0000
  0
SEQEND
  8
0
  0
POLYLINE
  8
0
 66
1
 10
0.0000
 20
0.0000
 30
0.0000
 40
0.1000
 41
0.1000
 70
0
  0
VERTEX
  8
0
 10
0.2379
 20
-0.4500
 30
0.0000
  0
VERTEX
  8
0
 10
-0.2379
 20
-0.4500
 30
0.0000
  0
SEQEND
  8
0
  0
POLYLINE
  8
0
 66
1
 10
0.0000
 20
0.0000
 30
0.0000
 40
0.0500
 41
0.0500
 70
0
  0
VERTEX
  8
0
 10
-0.2379
 20
-0.4250
 30
0.0000
 42
1.0000
  0
VERTEX
  8
0
 10
-0.2379
 20
-0.4750
 30
0.0000
  0
SEQEND
  8
0
  0
POLYLINE
  8
0
 66
1
 10
0.0000
 20
0.0000
 30
0.0000
 40
0.0500
 41
0.0500
 70
0
  0
VERTEX
  8
0
 10
0.2379
 20
-0.4750
 30
0.0000
 42
1.0000
  0
VERTEX
  8
0
 10
0.2379
 20
-0.4250
 30
0.0000
  0
SEQEND
  8
0
  0
POLYLINE
  8
0
 66
1
 10
0.0000
 20
0.0000
 30
0.0000
 40
0.1000
 41
0.1000
 70
0
  0
VERTEX
  8
0
 10
-0.4500
 20
-0.2379
 30
0.0000
  0
VERTEX
  8
0
 10
-0.4500
 20
0.2379
 30
0.0000
  0
SEQEND
  8
0
  0
POLYLINE
  8
0
 66
1
 10
0.0000
 20
0.0000
 30
0.0000
 40
0.0500
 41
0.0500
 70
0
  0
VERTEX
  8
0
 10
-0.4250
 20
0.2379
 30
0.0000
 42
1.0000
  0
VERTEX
  8
0
 10
-0.4750
 20
0.2379
 30
0.0000
  0
SEQEND
  8
0
  0
POLYLINE
  8
0
 66
1
 10
0.0000
 20
0.0000
 30
0.0000
 40
0.0500
 41
0.0500
 70
0
  0
VERTEX
  8
0
 10
-0.4750
 20
-0.2379
 30
0.0000
 42
1.0000
  0
VERTEX
  8
0
 10
-0.4250
 20
-0.2379
 30
0.0000
  0
SEQEND
  8
0
  0
ENDBLK
  8
0
  0
BLOCK
  8
0
  2
OCTAGONV
 70
64
 10
0.0000
 20
0.0000
 30
0.0000
  3
OCTAGONV
  0
POLYLINE
  8
0
 66
1
 10
0.0000
 20
0.0000
 30
0.0000
 40
0.5000
 41
0.5000
 70
0
  0
VERTEX
  8
0
 10
-0.2500
 20
-0.1036
 30
0.0000
  0
VERTEX
  8
0
 10
-0.2500
 20
0.1036
 30
0.0000
  0
VERTEX
  8
0
 10
-0.1036
 20
0.2500
 30
0.0000
  0
VERTEX
  8
0
 10
0.1036
 20
0.2500
 30
0.0000
  0
VERTEX
  8
0
 10
0.2500
 20
0.1036
 30
0.0000
  0
VERTEX
  8
0
 10
0.2500
 20
-0.1036
 30
0.0000
  0
VERTEX
  8
0
 10
0.1036
 20
-0.2500
 30
0.0000
  0
VERTEX
  8
0
 10
-0.1036
 20
-0.2500
 30
0.0000
  0
VERTEX
  8
0
 10
-0.2500
 20
-0.1036
 30
0.0000
  0
VERTEX
  8
0
 10
-0.2500
 20
0.1036
 30
0.0000
  0
SEQEND
  8
0
  0
ENDBLK
  8
0
  0
BLOCK
  8
0
  2
SQUAREV
 70
64
 10
0.0000
 20
0.0000
 30
0.0000
  3
SQUAREV
  0
SOLID
  8
0
 10
-0.5000
 20
-0.5000
 30
0.0000
 11
0.5000
 21
-0.5000
 31
0.0000
 12
-0.5000
 22
0.5000
 32
0.0000
 13
0.5000
 23
0.5000
 33
0.0000
  0
ENDBLK
  8
0
  0
BLOCK
  8
0
  2
ROUNDV
 70
64
 10
0.0000
 20
0.0000
 30
0.0000
  3
ROUNDV
  0
POLYLINE
  8
0
 66
1
 10
0.0000
 20
0.0000
 30
0.0000
 40
0.5000
 41
0.5000
 70
0
  0
VERTEX
  8
0
 10
0.0000
 20
-0.2500
 30
0.0000
 42
1.0000
  0
VERTEX
  8
0
 10
0.0000
 20
0.2500
 30
0.0000
 42
1.0000
  0
VERTEX
  8
0
 10
0.0000
 20
-0.2500
 30
0.0000
  0
SEQEND
  8
0
  0
ENDBLK
  8
0
  0
BLOCK
  8
0
  2
ANNULUSV
 70
64
 10
0.0000
 20
0.0000
 30
0.0000
  3
ANNULUSV
  0
POLYLINE
  8
0
 66
1
 10
0.0000
 20
0.0000
 30
0.0000
 40
0.5000
 41
0.5000
 70
0
  0
VERTEX
  8
0
 10
0.0000
 20
-0.2500
 30
0.0000
 42
1.0000
  0
VERTEX
  8
0
 10
0.0000
 20
0.2500
 30
0.0000
 42
1.0000
  0
VERTEX
  8
0
 10
0.0000
 20
-0.2500
 30
0.0000
  0
SEQEND
  8
0
  0
ENDBLK
  8
0
  0
BLOCK
  8
0
  2
THERMALV
 70
64
 10
0.0000
 20
0.0000
 30
0.0000
  3
THERMALV
  0
POLYLINE
  8
0
 66
1
 10
0.0000
 20
0.0000
 30
0.0000
 40
0.1000
 41
0.1000
 70
0
  0
VERTEX
  8
0
 10
-0.2379
 20
0.4500
 30
0.0000
  0
VERTEX
  8
0
 10
0.2379
 20
0.4500
 30
0.0000
  0
SEQEND
  8
0
  0
POLYLINE
  8
0
 66
1
 10
0.0000
 20
0.0000
 30
0.0000
 40
0.0500
 41
0.0500
 70
0
  0
VERTEX
  8
0
 10
0.2379
 20
0.4250
 30
0.0000
 42
1.0000
  0
VERTEX
  8
0
 10
0.2379
 20
0.4750
 30
0.0000
  0
SEQEND
  8
0
  0
POLYLINE
  8
0
 66
1
 10
0.0000
 20
0.0000
 30
0.0000
 40
0.0500
 41
0.0500
 70
0
  0
VERTEX
  8
0
 10
-0.2379
 20
0.4750
 30
0.0000
 42
1.0000
  0
VERTEX
  8
0
 10
-0.2379
 20
0.4250
 30
0.0000
  0
SEQEND
  8
0
  0
POLYLINE
  8
0
 66
1
 10
0.0000
 20
0.0000
 30
0.0000
 40
0.1000
 41
0.1000
 70
0
  0
VERTEX
  8
0
 10
0.4500
 20
0.2379
 30
0.0000
  0
VERTEX
  8
0
 10
0.4500
 20
-0.2379
 30
0.0000
  0
SEQEND
  8
0
  0
POLYLINE
  8
0
 66
1
 10
0.0000
 20
0.0000
 30
0.0000
 40
0.0500
 41
0.0500
 70
0
  0
VERTEX
  8
0
 10
0.4250
 20
-0.2379
 30
0.0000
 42
1.0000
  0
VERTEX
  8
0
 10
0.4750
 20
-0.2379
 30
0.0000
  0
SEQEND
  8
0
  0
POLYLINE
  8
0
 66
1
 10
0.0000
 20
0.0000
 30
0.0000
 40
0.0500
 41
0.0500
 70
0
  0
VERTEX
  8
0
 10
0.4750
 20
0.2379
 30
0.0000
 42
1.0000
  0
VERTEX
  8
0
 10
0.4250
 20
0.2379
 30
0.0000
  0
SEQEND
  8
0
  0
POLYLINE
  8
0
 66
1
 10
0.0000
 20
0.0000
 30
0.0000
 40
0.1000
 41
0.1000
 70
0
  0
VERTEX
  8
0
 10
0.2379
 20
-0.4500
 30
0.0000
  0
VERTEX
  8
0
 10
-0.2379
 20
-0.4500
 30
0.0000
  0
SEQEND
  8
0
  0
POLYLINE
  8
0
 66
1
 10
0.0000
 20
0.0000
 30
0.0000
 40
0.0500
 41
0.0500
 70
0
  0
VERTEX
  8
0
 10
-0.2379
 20
-0.4250
 30
0.0000
 42
1.0000
  0
VERTEX
  8
0
 10
-0.2379
 20
-0.4750
 30
0.0000
  0
SEQEND
  8
0
  0
POLYLINE
  8
0
 66
1
 10
0.0000
 20
0.0000
 30
0.0000
 40
0.0500
 41
0.0500
 70
0
  0
VERTEX
  8
0
 10
0.2379
 20
-0.4750
 30
0.0000
 42
1.0000
  0
VERTEX
  8
0
 10
0.2379
 20
-0.4250
 30
0.0000
  0
SEQEND
  8
0
  0
POLYLINE
  8
0
 66
1
 10
0.0000
 20
0.0000
 30
0.0000
 40
0.1000
 41
0.1000
 70
0
  0
VERTEX
  8
0
 10
-0.4500
 20
-0.2379
 30
0.0000
  0
VERTEX
  8
0
 10
-0.4500
 20
0.2379
 30
0.0000
  0
SEQEND
  8
0
  0
POLYLINE
  8
0
 66
1
 10
0.0000
 20
0.0000
 30
0.0000
 40
0.0500
 41
0.0500
 70
0
  0
VERTEX
  8
0
 10
-0.4250
 20
0.2379
 30
0.0000
 42
1.0000
  0
VERTEX
  8
0
 10
-0.4750
 20
0.2379
 30
0.0000
  0
SEQEND
  8
0
  0
POLYLINE
  8
0
 66
1
 10
0.0000
 20
0.0000
 30
0.0000
 40
0.0500
 41
0.0500
 70
0
  0
VERTEX
  8
0
 10
-0.4750
 20
-0.2379
 30
0.0000
 42
1.0000
  0
VERTEX
  8
0
 10
-0.4250
 20
-0.2379
 30
0.0000
  0
SEQEND
  8
0
  0
ENDBLK
  8
0
  0
ENDSEC
  0
SECTION
  2
ENTITIES
  0
LINE
  8
20
 10
0.0000
 20
0.0000
 30
0.0000
 11
50.8000
 21
0.0000
 31
0.0000
  0
LINE
  8
20
 10
50.8000
 20
0.0000
 30
0.0000
 11
50.8000
 21
76.2000
 31
0.0000
  0
LINE
  8
20
 10
50.8000
 20
76.2000
 30
0.0000
 11
0.0000
 21
76.2000
 31
0.0000
  0
LINE
  8
20
 10
0.0000
 20
76.2000
 30
0.0000
 11
0.0000
 21
0.0000
 31
0.0000
  0
CIRCLE
  8
20
 10
32.2580
 20
36.8300
 30
0.0000
 40
0.3000
  0
POLYLINE
  8
29
 66
1
 10
0.0000
 20
0.0000
 30
0.0000
 40
0.4270
 41
0.4270
 70
0
  0
VERTEX
  8
29
 10
32.2580
 20
36.6165
 30
0.0000
 42
1.0000
  0
VERTEX
  8
29
 10
32.2580
 20
37.0435
 30
0.0000
 42
1.0000
  0
VERTEX
  8
29
 10
32.2580
 20
36.6165
 30
0.0000
  0
SEQEND
  8
0
  0
CIRCLE
  8
20
 10
2.5400
 20
73.6600
 30
0.0000
 40
0.8000
  0
POLYLINE
  8
29
 66
1
 10
0.0000
 20
0.0000
 30
0.0000
 40
0.9270
 41
0.9270
 70
0
  0
VERTEX
  8
29
 10
2.5400
 20
73.1965
 30
0.0000
 42
1.0000
  0
VERTEX
  8
29
 10
2.5400
 20
74.1235
 30
0.0000
 42
1.0000
  0
VERTEX
  8
29
 10
2.5400
 20
73.1965
 30
0.0000
  0
SEQEND
  8
0
  0
CIRCLE
  8
20
 10
48.2600
 20
73.6600
 30
0.0000
 40
0.8000
  0
POLYLINE
  8
29
 66
1
 10
0.0000
 20
0.0000
 30
0.0000
 40
0.9270
 41
0.9270
 70
0
  0
VERTEX
  8
29
 10
48.2600
 20
73.1965
 30
0.0000
 42
1.0000
  0
VERTEX
  8
29
 10
48.2600
 20
74.1235
 30
0.0000
 42
1.0000
  0
VERTEX
  8
29
 10
48.2600
 20
73.1965
 30
0.0000
  0
SEQEND
  8
0
  0
CIRCLE
  8
20
 10
48.2600
 20
2.5400
 30
0.0000
 40
0.8000
  0
POLYLINE
  8
29
 66
1
 10
0.0000
 20
0.0000
 30
0.0000
 40
0.9270
 41
0.9270
 70
0
  0
VERTEX
  8
29
 10
48.2600
 20
2.0765
 30
0.0000
 42
1.0000
  0
VERTEX
  8
29
 10
48.2600
 20
3.0035
 30
0.0000
 42
1.0000
  0
VERTEX
  8
29
 10
48.2600
 20
2.0765
 30
0.0000
  0
SEQEND
  8
0
  0
CIRCLE
  8
20
 10
3.8100
 20
10.1600
 30
0.0000
 40
0.8000
  0
POLYLINE
  8
29
 66
1
 10
0.0000
 20
0.0000
 30
0.0000
 40
0.9270
 41
0.9270
 70
0
  0
VERTEX
  8
29
 10
3.8100
 20
9.6965
 30
0.0000
 42
1.0000
  0
VERTEX
  8
29
 10
3.8100
 20
10.6235
 30
0.0000
 42
1.0000
  0
VERTEX
  8
29
 10
3.8100
 20
9.6965
 30
0.0000
  0
SEQEND
  8
0
  0
POLYLINE
  8
21
 66
1
 10
0.0000
 20
0.0000
 30
0.0000
 40
0.1524
 41
0.1524
 70
0
  0
VERTEX
  8
21
 10
7.9660
 20
36.1140
 30
0.0000
  0
VERTEX
  8
21
 10
7.9660
 20
35.5140
 30
0.0000
  0
SEQEND
  8
0
  0
POLYLINE
  8
21
 66
1
 10
0.0000
 20
0.0000
 30
0.0000
 40
0.0762
 41
0.0762
 70
0
  0
VERTEX
  8
21
 10
7.9279
 20
35.5140
 30
0.0000
 42
1.0000
  0
VERTEX
  8
21
 10
8.0041
 20
35.5140
 30
0.0000
  0
SEQEND
  8
0
  0
POLYLINE
  8
21
 66
1
 10
0.0000
 20
0.0000
 30
0.0000
 40
0.0762
 41
0.0762
 70
0
  0
VERTEX
  8
21
 10
8.0041
 20
36.1140
 30
0.0000
 42
1.0000
  0
VERTEX
  8
21
 10
7.9279
 20
36.1140
 30
0.0000
  0
SEQEND
  8
0
  0
POLYLINE
  8
21
 66
1
 10
0.0000
 20
0.0000
 30
0.0000
 40
0.1524
 41
0.1524
 70
0
  0
VERTEX
  8
21
 10
6.7660
 20
36.1140
 30
0.0000
  0
VERTEX
  8
21
 10
6.7660
 20
35.5140
 30
0.0000
  0
SEQEND
  8
0
  0
POLYLINE
  8
21
 66
1
 10
0.0000
 20
0.0000
 30
0.0000
 40
0.0762
 41
0.0762
 70
0
  0
VERTEX
  8
21
 10
6.7279
 20
35.5140
 30
0.0000
 42
1.0000
  0
VERTEX
  8
21
 10
6.8041
 20
35.5140
 30
0.0000
  0
SEQEND
  8
0
  0
POLYLINE
  8
21
 66
1
 10
0.0000
 20
0.0000
 30
0.0000
 40
0.0762
 41
0.0762
 70
0
  0
VERTEX
  8
21
 10
6.8041
 20
36.1140
 30
0.0000
 42
1.0000
  0
VERTEX
  8
21
 10
6.7279
 20
36.1140
 30
0.0000
  0
SEQEND
  8
0
  0
INSERT
  8
29
  2
RECT
 10
7.3660
 20
36.7140
 30
0.0000
 41
1.0540
 42
1.4540
 43
1.0000
 50
270.0000
  0
INSERT
  8
29
  2
RECT
 10
7.3660
 20
34.9140
 30
0.0000
 41
1.0540
 42
1.4540
 43
1.0000
 50
270.0000
  0
INSERT
  8
17
  2
ROUNDP
 10
22.0980
 20
41.6560
 30
0.0000
 41
2.0320
 42
2.0320
 43
1.0000
 50
0.0000
  0
INSERT
  8
17
  2
ROUNDP
 10
22.0980
 20
41.6560
 30
0.0000
 41
2.0320
 42
2.0320
 43
1.0000
 50
0.0000
  0
INSERT
  8
29
  2
ROUNDP
 10
22.0980
 20
41.6560
 30
0.0000
 41
2.2860
 42
2.2860
 43
1.0000
 50
0.0000
  0
CIRCLE
  8
44
 10
22.0980
 20
41.6560
 30
0.0000
 40
0.5080
  0
INSERT
  8
17
  2
ROUNDP
 10
22.0980
 20
39.1160
 30
0.0000
 41
2.0320
 42
2.0320
 43
1.0000
 50
0.0000
  0
INSERT
  8
17
  2
ROUNDP
 10
22.0980
 20
39.1160
 30
0.0000
 41
2.0320
 42
2.0320
 43
1.0000
 50
0.0000
  0
INSERT
  8
29
  2
ROUNDP
 10
22.0980
 20
39.1160
 30
0.0000
 41
2.2860
 42
2.2860
 43
1.0000
 50
0.0000
  0
CIRCLE
  8
44
 10
22.0980
 20
39.1160
 30
0.0000
 40
0.5080
  0
INSERT
  8
17
  2
ROUNDP
 10
22.0980
 20
36.5760
 30
0.0000
 41
2.0320
 42
2.0320
 43
1.0000
 50
0.0000
  0
INSERT
  8
17
  2
ROUNDP
 10
22.0980
 20
36.5760
 30
0.0000
 41
2.0320
 42
2.0320
 43
1.0000
 50
0.0000
  0
INSERT
  8
29
  2
ROUNDP
 10
22.0980
 20
36.5760
 30
0.0000
 41
2.2860
 42
2.2860
 43
1.0000
 50
0.0000
  0
CIRCLE
  8
44
 10
22.0980
 20
36.5760
 30
0.0000
 40
0.5080
  0
INSERT
  8
17
  2
ROUNDP
 10
22.0980
 20
34.0360
 30
0.0000
 41
2.0320
 42
2.0320
 43
1.0000
 50
0.0000
  0
INSERT
  8
17
  2
ROUNDP
 10
22.0980
 20
34.0360
 30
0.0000
 41
2.0320
 42
2.0320
 43
1.0000
 50
0.0000
  0
INSERT
  8
29
  2
ROUNDP
 10
22.0980
 20
34.0360
 30
0.0000
 41
2.2860
 42
2.2860
 43
1.0000
 50
0.0000
  0
CIRCLE
  8
44
 10
22.0980
 20
34.0360
 30
0.0000
 40
0.5080
  0
INSERT
  8
17
  2
ROUNDP
 10
22.0980
 20
31.4960
 30
0.0000
 41
2.0320
 42
2.0320
 43
1.0000
 50
0.0000
  0
INSERT
  8
17
  2
ROUNDP
 10
22.0980
 20
31.4960
 30
0.0000
 41
2.0320
 42
2.0320
 43
1.0000
 50
0.0000
  0
INSERT
  8
29
  2
ROUNDP
 10
22.0980
 20
31.4960
 30
0.0000
 41
2.2860
 42
2.2860
 43
1.0000
 50
0.0000
  0
CIRCLE
  8
44
 10
22.0980
 20
31.4960
 30
0.0000
 40
0.5080
  0
INSERT
  8
17
  2
ROUNDP
 10
22.0980
 20
28.9560
 30
0.0000
 41
2.0320
 42
2.0320
 43
1.0000
 50
0.0000
  0
INSERT
  8
17
  2
ROUNDP
 10
22.0980
 20
28.9560
 30
0.0000
 41
2.0320
 42
2.0320
 43
1.0000
 50
0.0000
  0
INSERT
  8
29
  2
ROUNDP
 10
22.0980
 20
28.9560
 30
0.0000
 41
2.2860
 42
2.2860
 43
1.0000
 50
0.0000
  0
CIRCLE
  8
44
 10
22.0980
 20
28.9560
 30
0.0000
 40
0.5080
  0
INSERT
  8
17
  2
SQUAREP
 10
29.7180
 20
52.0700
 30
0.0000
 41
2.0320
 42
2.0320
 43
1.0000
 50
270.0000
  0
INSERT
  8
17
  2
SQUAREP
 10
29.7180
 20
52.0700
 30
0.0000
 41
2.0320
 42
2.0320
 43
1.0000
 50
270.0000
  0
INSERT
  8
29
  2
SQUAREP
 10
29.7180
 20
52.0700
 30
0.0000
 41
2.2860
 42
2.2860
 43
1.0000
 50
270.0000
  0
CIRCLE
  8
44
 10
29.7180
 20
52.0700
 30
0.0000
 40
0.5080
  0
INSERT
  8
17
  2
ROUNDP
 10
27.1780
 20
52.0700
 30
0.0000
 41
2.0320
 42
2.0320
 43
1.0000
 50
270.0000
  0
INSERT
  8
17
  2
ROUNDP
 10
27.1780
 20
52.0700
 30
0.0000
 41
2.0320
 42
2.0320
 43
1.0000
 50
270.0000
  0
INSERT
  8
29
  2
ROUNDP
 10
27.1780
 20
52.0700
 30
0.0000
 41
2.2860
 42
2.2860
 43
1.0000
 50
270.0000
  0
CIRCLE
  8
44
 10
27.1780
 20
52.0700
 30
0.0000
 40
0.5080
  0
INSERT
  8
17
  2
ROUNDP
 10
24.6380
 20
52.0700
 30
0.0000
 41
2.0320
 42
2.0320
 43
1.0000
 50
270.0000
  0
INSERT
  8
17
  2
ROUNDP
 10
24.6380
 20
52.0700
 30
0.0000
 41
2.0320
 42
2.0320
 43
1.0000
 50
270.0000
  0
INSERT
  8
29
  2
ROUNDP
 10
24.6380
 20
52.0700
 30
0.0000
 41
2.2860
 42
2.2860
 43
1.0000
 50
270.0000
  0
CIRCLE
  8
44
 10
24.6380
 20
52.0700
 30
0.0000
 40
0.5080
  0
INSERT
  8
17
  2
ROUNDP
 10
22.0980
 20
52.0700
 30
0.0000
 41
2.0320
 42
2.0320
 43
1.0000
 50
270.0000
  0
INSERT
  8
17
  2
ROUNDP
 10
22.0980
 20
52.0700
 30
0.0000
 41
2.0320
 42
2.0320
 43
1.0000
 50
270.0000
  0
INSERT
  8
29
  2
ROUNDP
 10
22.0980
 20
52.0700
 30
0.0000
 41
2.2860
 42
2.2860
 43
1.0000
 50
270.0000
  0
CIRCLE
  8
44
 10
22.0980
 20
52.0700
 30
0.0000
 40
0.5080
  0
INSERT
  8
17
  2
ROUNDP
 10
19.5580
 20
52.0700
 30
0.0000
 41
2.0320
 42
2.0320
 43
1.0000
 50
270.0000
  0
INSERT
  8
17
  2
ROUNDP
 10
19.5580
 20
52.0700
 30
0.0000
 41
2.0320
 42
2.0320
 43
1.0000
 50
270.0000
  0
INSERT
  8
29
  2
ROUNDP
 10
19.5580
 20
52.0700
 30
0.0000
 41
2.2860
 42
2.2860
 43
1.0000
 50
270.0000
  0
CIRCLE
  8
44
 10
19.5580
 20
52.0700
 30
0.0000
 40
0.5080
  0
INSERT
  8
17
  2
ROUNDP
 10
17.0180
 20
52.0700
 30
0.0000
 41
2.0320
 42
2.0320
 43
1.0000
 50
270.0000
  0
INSERT
  8
17
  2
ROUNDP
 10
17.0180
 20
52.0700
 30
0.0000
 41
2.0320
 42
2.0320
 43
1.0000
 50
270.0000
  0
INSERT
  8
29
  2
ROUNDP
 10
17.0180
 20
52.0700
 30
0.0000
 41
2.2860
 42
2.2860
 43
1.0000
 50
270.0000
  0
CIRCLE
  8
44
 10
17.0180
 20
52.0700
 30
0.0000
 40
0.5080
  0
INSERT
  8
17
  2
ROUNDP
 10
14.4780
 20
52.0700
 30
0.0000
 41
2.0320
 42
2.0320
 43
1.0000
 50
270.0000
  0
INSERT
  8
17
  2
ROUNDP
 10
14.4780
 20
52.0700
 30
0.0000
 41
2.0320
 42
2.0320
 43
1.0000
 50
270.0000
  0
INSERT
  8
29
  2
ROUNDP
 10
14.4780
 20
52.0700
 30
0.0000
 41
2.2860
 42
2.2860
 43
1.0000
 50
270.0000
  0
CIRCLE
  8
44
 10
14.4780
 20
52.0700
 30
0.0000
 40
0.5080
  0
INSERT
  8
17
  2
ROUNDP
 10
11.9380
 20
52.0700
 30
0.0000
 41
2.0320
 42
2.0320
 43
1.0000
 50
270.0000
  0
INSERT
  8
17
  2
ROUNDP
 10
11.9380
 20
52.0700
 30
0.0000
 41
2.0320
 42
2.0320
 43
1.0000
 50
270.0000
  0
INSERT
  8
29
  2
ROUNDP
 10
11.9380
 20
52.0700
 30
0.0000
 41
2.2860
 42
2.2860
 43
1.0000
 50
270.0000
  0
CIRCLE
  8
44
 10
11.9380
 20
52.0700
 30
0.0000
 40
0.5080
  0
INSERT
  8
17
  2
SQUAREP
 10
11.9380
 20
3.8100
 30
0.0000
 41
2.0320
 42
2.0320
 43
1.0000
 50
270.0000
  0
INSERT
  8
17
  2
SQUAREP
 10
11.9380
 20
3.8100
 30
0.0000
 41
2.0320
 42
2.0320
 43
1.0000
 50
270.0000
  0
INSERT
  8
29
  2
SQUAREP
 10
11.9380
 20
3.8100
 30
0.0000
 41
2.2860
 42
2.2860
 43
1.0000
 50
270.0000
  0
CIRCLE
  8
44
 10
11.9380
 20
3.8100
 30
0.0000
 40
0.5080
  0
INSERT
  8
17
  2
ROUNDP
 10
9.3980
 20
3.8100
 30
0.0000
 41
2.0320
 42
2.0320
 43
1.0000
 50
270.0000
  0
INSERT
  8
17
  2
ROUNDP
 10
9.3980
 20
3.8100
 30
0.0000
 41
2.0320
 42
2.0320
 43
1.0000
 50
270.0000
  0
INSERT
  8
29
  2
ROUNDP
 10
9.3980
 20
3.8100
 30
0.0000
 41
2.2860
 42
2.2860
 43
1.0000
 50
270.0000
  0
CIRCLE
  8
44
 10
9.3980
 20
3.8100
 30
0.0000
 40
0.5080
  0
INSERT
  8
17
  2
ROUNDP
 10
6.8580
 20
3.8100
 30
0.0000
 41
2.0320
 42
2.0320
 43
1.0000
 50
270.0000
  0
INSERT
  8
17
  2
ROUNDP
 10
6.8580
 20
3.8100
 30
0.0000
 41
2.0320
 42
2.0320
 43
1.0000
 50
270.0000
  0
INSERT
  8
29
  2
ROUNDP
 10
6.8580
 20
3.8100
 30
0.0000
 41
2.2860
 42
2.2860
 43
1.0000
 50
270.0000
  0
CIRCLE
  8
44
 10
6.8580
 20
3.8100
 30
0.0000
 40
0.5080
  0
INSERT
  8
17
  2
ROUNDP
 10
4.3180
 20
3.8100
 30
0.0000
 41
2.0320
 42
2.0320
 43
1.0000
 50
270.0000
  0
INSERT
  8
17
  2
ROUNDP
 10
4.3180
 20
3.8100
 30
0.0000
 41
2.0320
 42
2.0320
 43
1.0000
 50
270.0000
  0
INSERT
  8
29
  2
ROUNDP
 10
4.3180
 20
3.8100
 30
0.0000
 41
2.2860
 42
2.2860
 43
1.0000
 50
270.0000
  0
CIRCLE
  8
44
 10
4.3180
 20
3.8100
 30
0.0000
 40
0.5080
  0
POLYLINE
  8
21
 66
1
 10
0.0000
 20
0.0000
 30
0.0000
 40
0.0762
 41
0.0762
 70
0
  0
VERTEX
  8
21
 10
27.7678
 20
18.5041
 30
0.0000
  0
VERTEX
  8
21
 10
27.7678
 20
19.1312
 30
0.0000
  0
SEQEND
  8
0
  0
POLYLINE
  8
21
 66
1
 10
0.0000
 20
0.0000
 30
0.0000
 40
0.0381
 41
0.0381
 70
0
  0
VERTEX
  8
21
 10
27.7869
 20
19.1312
 30
0.0000
 42
1.0000
  0
VERTEX
  8
21
 10
27.7488
 20
19.1312
 30
0.0000
  0
SEQEND
  8
0
  0
POLYLINE
  8
21
 66
1
 10
0.0000
 20
0.0000
 30
0.0000
 40
0.0381
 41
0.0381
 70
0
  0
VERTEX
  8
21
 10
27.7488
 20
18.5041
 30
0.0000
 42
1.0000
  0
VERTEX
  8
21
 10
27.7869
 20
18.5041
 30
0.0000
  0
SEQEND
  8
0
  0
POLYLINE
  8
21
 66
1
 10
0.0000
 20
0.0000
 30
0.0000
 40
0.0762
 41
0.0762
 70
0
  0
VERTEX
  8
21
 10
27.4543
 20
18.8177
 30
0.0000
  0
VERTEX
  8
21
 10
28.0814
 20
18.8177
 30
0.0000
  0
SEQEND
  8
0
  0
POLYLINE
  8
21
 66
1
 10
0.0000
 20
0.0000
 30
0.0000
 40
0.0381
 41
0.0381
 70
0
  0
VERTEX
  8
21
 10
28.0814
 20
18.7986
 30
0.0000
 42
1.0000
  0
VERTEX
  8
21
 10
28.0814
 20
18.8367
 30
0.0000
  0
SEQEND
  8
0
  0
POLYLINE
  8
21
 66
1
 10
0.0000
 20
0.0000
 30
0.0000
 40
0.0381
 41
0.0381
 70
0
  0
VERTEX
  8
21
 10
27.4543
 20
18.8367
 30
0.0000
 42
1.0000
  0
VERTEX
  8
21
 10
27.4543
 20
18.7986
 30
0.0000
  0
SEQEND
  8
0
  0
INSERT
  8
21
  2
RECT
 10
29.9502
 20
18.7315
 30
0.0000
 41
0.1500
 42
0.3000
 43
1.0000
 50
270.0000
  0
INSERT
  8
21
  2
RECT
 10
29.9502
 20
17.5315
 30
0.0000
 41
0.1500
 42
0.3000
 43
1.0000
 50
270.0000
  0
INSERT
  8
21
  2
RECT
 10
29.9502
 20
18.1315
 30
0.0000
 41
0.3000
 42
0.3000
 43
1.0000
 50
270.0000
  0
INSERT
  8
29
  2
RECT
 10
28.7502
 20
18.1315
 30
0.0000
 41
1.4540
 42
1.4540
 43
1.0000
 50
270.0000
  0
INSERT
  8
29
  2
RECT
 10
30.8502
 20
18.1315
 30
0.0000
 41
1.4540
 42
1.4540
 43
1.0000
 50
270.0000
  0
POLYLINE
  8
21
 66
1
 10
0.0000
 20
0.0000
 30
0.0000
 40
0.0762
 41
0.0762
 70
0
  0
VERTEX
  8
21
 10
26.9141
 20
13.5792
 30
0.0000
  0
VERTEX
  8
21
 10
26.9141
 20
14.2062
 30
0.0000
  0
SEQEND
  8
0
  0
POLYLINE
  8
21
 66
1
 10
0.0000
 20
0.0000
 30
0.0000
 40
0.0381
 41
0.0381
 70
0
  0
VERTEX
  8
21
 10
26.9332
 20
14.2062
 30
0.0000
 42
1.0000
  0
VERTEX
  8
21
 10
26.8951
 20
14.2062
 30
0.0000
  0
SEQEND
  8
0
  0
POLYLINE
  8
21
 66
1
 10
0.0000
 20
0.0000
 30
0.0000
 40
0.0381
 41
0.0381
 70
0
  0
VERTEX
  8
21
 10
26.8951
 20
13.5792
 30
0.0000
 42
1.0000
  0
VERTEX
  8
21
 10
26.9332
 20
13.5792
 30
0.0000
  0
SEQEND
  8
0
  0
POLYLINE
  8
21
 66
1
 10
0.0000
 20
0.0000
 30
0.0000
 40
0.0762
 41
0.0762
 70
0
  0
VERTEX
  8
21
 10
26.6006
 20
13.8927
 30
0.0000
  0
VERTEX
  8
21
 10
27.2277
 20
13.8927
 30
0.0000
  0
SEQEND
  8
0
  0
POLYLINE
  8
21
 66
1
 10
0.0000
 20
0.0000
 30
0.0000
 40
0.0381
 41
0.0381
 70
0
  0
VERTEX
  8
21
 10
27.2277
 20
13.8736
 30
0.0000
 42
1.0000
  0
VERTEX
  8
21
 10
27.2277
 20
13.9117
 30
0.0000
  0
SEQEND
  8
0
  0
POLYLINE
  8
21
 66
1
 10
0.0000
 20
0.0000
 30
0.0000
 40
0.0381
 41
0.0381
 70
0
  0
VERTEX
  8
21
 10
26.6006
 20
13.9117
 30
0.0000
 42
1.0000
  0
VERTEX
  8
21
 10
26.6006
 20
13.8736
 30
0.0000
  0
SEQEND
  8
0
  0
INSERT
  8
21
  2
RECT
 10
29.0965
 20
13.8066
 30
0.0000
 41
0.1500
 42
0.3000
 43
1.0000
 50
270.0000
  0
INSERT
  8
21
  2
RECT
 10
29.0965
 20
12.6066
 30
0.0000
 41
0.1500
 42
0.3000
 43
1.0000
 50
270.0000
  0
INSERT
  8
21
  2
RECT
 10
29.0965
 20
13.2066
 30
0.0000
 41
0.3000
 42
0.3000
 43
1.0000
 50
270.0000
  0
INSERT
  8
29
  2
RECT
 10
27.8965
 20
13.2066
 30
0.0000
 41
1.4540
 42
1.4540
 43
1.0000
 50
270.0000
  0
INSERT
  8
29
  2
RECT
 10
29.9965
 20
13.2066
 30
0.0000
 41
1.4540
 42
1.4540
 43
1.0000
 50
270.0000
  0
POLYLINE
  8
21
 66
1
 10
0.0000
 20
0.0000
 30
0.0000
 40
0.6096
 41
0.6096
 70
0
  0
VERTEX
  8
21
 10
16.6370
 20
10.1600
 30
0.0000
  0
VERTEX
  8
21
 10
16.4338
 20
10.1600
 30
0.0000
  0
SEQEND
  8
0
  0
POLYLINE
  8
21
 66
1
 10
0.0000
 20
0.0000
 30
0.0000
 40
0.3048
 41
0.3048
 70
0
  0
VERTEX
  8
21
 10
16.4338
 20
10.3124
 30
0.0000
 42
1.0000
  0
VERTEX
  8
21
 10
16.4338
 20
10.0076
 30
0.0000
  0
SEQEND
  8
0
  0
POLYLINE
  8
21
 66
1
 10
0.0000
 20
0.0000
 30
0.0000
 40
0.3048
 41
0.3048
 70
0
  0
VERTEX
  8
21
 10
16.6370
 20
10.0076
 30
0.0000
 42
1.0000
  0
VERTEX
  8
21
 10
16.6370
 20
10.3124
 30
0.0000
  0
SEQEND
  8
0
  0
POLYLINE
  8
21
 66
1
 10
0.0000
 20
0.0000
 30
0.0000
 40
0.1524
 41
0.1524
 70
0
  0
VERTEX
  8
21
 10
19.3040
 20
10.1600
 30
0.0000
  0
VERTEX
  8
21
 10
18.7960
 20
10.1600
 30
0.0000
  0
SEQEND
  8
0
  0
POLYLINE
  8
21
 66
1
 10
0.0000
 20
0.0000
 30
0.0000
 40
0.0762
 41
0.0762
 70
0
  0
VERTEX
  8
21
 10
18.7960
 20
10.1981
 30
0.0000
 42
1.0000
  0
VERTEX
  8
21
 10
18.7960
 20
10.1219
 30
0.0000
  0
SEQEND
  8
0
  0
POLYLINE
  8
21
 66
1
 10
0.0000
 20
0.0000
 30
0.0000
 40
0.0762
 41
0.0762
 70
0
  0
VERTEX
  8
21
 10
19.3040
 20
10.1219
 30
0.0000
 42
1.0000
  0
VERTEX
  8
21
 10
19.3040
 20
10.1981
 30
0.0000
  0
SEQEND
  8
0
  0
POLYLINE
  8
21
 66
1
 10
0.0000
 20
0.0000
 30
0.0000
 40
0.1524
 41
0.1524
 70
0
  0
VERTEX
  8
21
 10
19.0500
 20
10.4140
 30
0.0000
  0
VERTEX
  8
21
 10
19.0500
 20
9.9060
 30
0.0000
  0
SEQEND
  8
0
  0
POLYLINE
  8
21
 66
1
 10
0.0000
 20
0.0000
 30
0.0000
 40
0.0762
 41
0.0762
 70
0
  0
VERTEX
  8
21
 10
19.0119
 20
9.9060
 30
0.0000
 42
1.0000
  0
VERTEX
  8
21
 10
19.0881
 20
9.9060
 30
0.0000
  0
SEQEND
  8
0
  0
POLYLINE
  8
21
 66
1
 10
0.0000
 20
0.0000
 30
0.0000
 40
0.0762
 41
0.0762
 70
0
  0
VERTEX
  8
21
 10
19.0881
 20
10.4140
 30
0.0000
 42
1.0000
  0
VERTEX
  8
21
 10
19.0119
 20
10.4140
 30
0.0000
  0
SEQEND
  8
0
  0
POLYLINE
  8
21
 66
1
 10
0.0000
 20
0.0000
 30
0.0000
 40
0.1524
 41
0.1524
 70
0
  0
VERTEX
  8
21
 10
16.0020
 20
9.5250
 30
0.0000
 42
5.7772
  0
VERTEX
  8
21
 10
15.9697
 20
10.8056
 30
0.0000
  0
SEQEND
  8
0
  0
POLYLINE
  8
21
 66
1
 10
0.0000
 20
0.0000
 30
0.0000
 40
0.0762
 41
0.0762
 70
0
  0
VERTEX
  8
21
 10
16.0375
 20
9.5387
 30
0.0000
 42
1.0000
  0
VERTEX
  8
21
 10
15.9665
 20
9.5113
 30
0.0000
  0
SEQEND
  8
0
  0
POLYLINE
  8
21
 66
1
 10
0.0000
 20
0.0000
 30
0.0000
 40
0.0762
 41
0.0762
 70
0
  0
VERTEX
  8
21
 10
15.9335
 20
10.8175
 30
0.0000
 42
1.0000
  0
VERTEX
  8
21
 10
16.0059
 20
10.7937
 30
0.0000
  0
SEQEND
  8
0
  0
INSERT
  8
17
  2
ROUNDP
 10
17.7800
 20
10.1600
 30
0.0000
 41
1.8288
 42
1.8288
 43
1.0000
 50
180.0000
  0
INSERT
  8
17
  2
ROUNDP
 10
17.7800
 20
10.1600
 30
0.0000
 41
1.8288
 42
1.8288
 43
1.0000
 50
180.0000
  0
INSERT
  8
29
  2
ROUNDP
 10
17.7800
 20
10.1600
 30
0.0000
 41
2.0828
 42
2.0828
 43
1.0000
 50
180.0000
  0
CIRCLE
  8
44
 10
17.7800
 20
10.1600
 30
0.0000
 40
0.4064
  0
INSERT
  8
17
  2
OCTAGONP
 10
15.2400
 20
10.1600
 30
0.0000
 41
1.8288
 42
1.8288
 43
1.0000
 50
180.0000
  0
INSERT
  8
17
  2
OCTAGONP
 10
15.2400
 20
10.1600
 30
0.0000
 41
1.8288
 42
1.8288
 43
1.0000
 50
180.0000
  0
INSERT
  8
29
  2
OCTAGONP
 10
15.2400
 20
10.1600
 30
0.0000
 41
2.0828
 42
2.0828
 43
1.0000
 50
180.0000
  0
CIRCLE
  8
44
 10
15.2400
 20
10.1600
 30
0.0000
 40
0.4064
  0
POLYLINE
  8
21
 66
1
 10
0.0000
 20
0.0000
 30
0.0000
 40
0.6096
 41
0.6096
 70
0
  0
VERTEX
  8
21
 10
10.2870
 20
10.1600
 30
0.0000
  0
VERTEX
  8
21
 10
10.4902
 20
10.1600
 30
0.0000
  0
SEQEND
  8
0
  0
POLYLINE
  8
21
 66
1
 10
0.0000
 20
0.0000
 30
0.0000
 40
0.3048
 41
0.3048
 70
0
  0
VERTEX
  8
21
 10
10.4902
 20
10.0076
 30
0.0000
 42
1.0000
  0
VERTEX
  8
21
 10
10.4902
 20
10.3124
 30
0.0000
  0
SEQEND
  8
0
  0
POLYLINE
  8
21
 66
1
 10
0.0000
 20
0.0000
 30
0.0000
 40
0.3048
 41
0.3048
 70
0
  0
VERTEX
  8
21
 10
10.2870
 20
10.3124
 30
0.0000
 42
1.0000
  0
VERTEX
  8
21
 10
10.2870
 20
10.0076
 30
0.0000
  0
SEQEND
  8
0
  0
POLYLINE
  8
21
 66
1
 10
0.0000
 20
0.0000
 30
0.0000
 40
0.1524
 41
0.1524
 70
0
  0
VERTEX
  8
21
 10
7.6200
 20
10.1600
 30
0.0000
  0
VERTEX
  8
21
 10
8.1280
 20
10.1600
 30
0.0000
  0
SEQEND
  8
0
  0
POLYLINE
  8
21
 66
1
 10
0.0000
 20
0.0000
 30
0.0000
 40
0.0762
 41
0.0762
 70
0
  0
VERTEX
  8
21
 10
8.1280
 20
10.1219
 30
0.0000
 42
1.0000
  0
VERTEX
  8
21
 10
8.1280
 20
10.1981
 30
0.0000
  0
SEQEND
  8
0
  0
POLYLINE
  8
21
 66
1
 10
0.0000
 20
0.0000
 30
0.0000
 40
0.0762
 41
0.0762
 70
0
  0
VERTEX
  8
21
 10
7.6200
 20
10.1981
 30
0.0000
 42
1.0000
  0
VERTEX
  8
21
 10
7.6200
 20
10.1219
 30
0.0000
  0
SEQEND
  8
0
  0
POLYLINE
  8
21
 66
1
 10
0.0000
 20
0.0000
 30
0.0000
 40
0.1524
 41
0.1524
 70
0
  0
VERTEX
  8
21
 10
7.8740
 20
9.9060
 30
0.0000
  0
VERTEX
  8
21
 10
7.8740
 20
10.4140
 30
0.0000
  0
SEQEND
  8
0
  0
POLYLINE
  8
21
 66
1
 10
0.0000
 20
0.0000
 30
0.0000
 40
0.0762
 41
0.0762
 70
0
  0
VERTEX
  8
21
 10
7.9121
 20
10.4140
 30
0.0000
 42
1.0000
  0
VERTEX
  8
21
 10
7.8359
 20
10.4140
 30
0.0000
  0
SEQEND
  8
0
  0
POLYLINE
  8
21
 66
1
 10
0.0000
 20
0.0000
 30
0.0000
 40
0.0762
 41
0.0762
 70
0
  0
VERTEX
  8
21
 10
7.8359
 20
9.9060
 30
0.0000
 42
1.0000
  0
VERTEX
  8
21
 10
7.9121
 20
9.9060
 30
0.0000
  0
SEQEND
  8
0
  0
POLYLINE
  8
21
 66
1
 10
0.0000
 20
0.0000
 30
0.0000
 40
0.1524
 41
0.1524
 70
0
  0
VERTEX
  8
21
 10
10.9220
 20
10.7950
 30
0.0000
 42
5.7772
  0
VERTEX
  8
21
 10
10.9543
 20
9.5144
 30
0.0000
  0
SEQEND
  8
0
  0
POLYLINE
  8
21
 66
1
 10
0.0000
 20
0.0000
 30
0.0000
 40
0.0762
 41
0.0762
 70
0
  0
VERTEX
  8
21
 10
10.8865
 20
10.7813
 30
0.0000
 42
1.0000
  0
VERTEX
  8
21
 10
10.9575
 20
10.8087
 30
0.0000
  0
SEQEND
  8
0
  0
POLYLINE
  8
21
 66
1
 10
0.0000
 20
0.0000
 30
0.0000
 40
0.0762
 41
0.0762
 70
0
  0
VERTEX
  8
21
 10
10.9905
 20
9.5025
 30
0.0000
 42
1.0000
  0
VERTEX
  8
21
 10
10.9181
 20
9.5263
 30
0.0000
  0
SEQEND
  8
0
  0
INSERT
  8
17
  2
ROUNDP
 10
9.1440
 20
10.1600
 30
0.0000
 41
1.8288
 42
1.8288
 43
1.0000
 50
0.0000
  0
INSERT
  8
17
  2
ROUNDP
 10
9.1440
 20
10.1600
 30
0.0000
 41
1.8288
 42
1.8288
 43
1.0000
 50
0.0000
  0
INSERT
  8
29
  2
ROUNDP
 10
9.1440
 20
10.1600
 30
0.0000
 41
2.0828
 42
2.0828
 43
1.0000
 50
0.0000
  0
CIRCLE
  8
44
 10
9.1440
 20
10.1600
 30
0.0000
 40
0.4064
  0
INSERT
  8
17
  2
OCTAGONP
 10
11.6840
 20
10.1600
 30
0.0000
 41
1.8288
 42
1.8288
 43
1.0000
 50
0.0000
  0
INSERT
  8
17
  2
OCTAGONP
 10
11.6840
 20
10.1600
 30
0.0000
 41
1.8288
 42
1.8288
 43
1.0000
 50
0.0000
  0
INSERT
  8
29
  2
OCTAGONP
 10
11.6840
 20
10.1600
 30
0.0000
 41
2.0828
 42
2.0828
 43
1.0000
 50
0.0000
  0
CIRCLE
  8
44
 10
11.6840
 20
10.1600
 30
0.0000
 40
0.4064
  0
INSERT
  8
29
  2
RECT
 10
23.7467
 20
13.9485
 30
0.0000
 41
1.5540
 42
1.7540
 43
1.0000
 50
0.0000
  0
INSERT
  8
29
  2
RECT
 10
25.6467
 20
13.9485
 30
0.0000
 41
1.5540
 42
1.7540
 43
1.0000
 50
0.0000
  0
INSERT
  8
29
  2
RECT
 10
23.9642
 20
18.1021
 30
0.0000
 41
1.5540
 42
1.7540
 43
1.0000
 50
0.0000
  0
INSERT
  8
29
  2
RECT
 10
25.8642
 20
18.1021
 30
0.0000
 41
1.5540
 42
1.7540
 43
1.0000
 50
0.0000
  0
INSERT
  8
29
  2
RECT
 10
34.5440
 20
52.0700
 30
0.0000
 41
2.4384
 42
1.3208
 43
1.0000
 50
0.0000
  0
INSERT
  8
29
  2
RECT
 10
43.5610
 20
52.0700
 30
0.0000
 41
2.4384
 42
1.3208
 43
1.0000
 50
0.0000
  0
INSERT
  8
29
  2
RECT
 10
43.5610
 20
47.2694
 30
0.0000
 41
2.4384
 42
1.3208
 43
1.0000
 50
0.0000
  0
INSERT
  8
29
  2
RECT
 10
34.5440
 20
47.2694
 30
0.0000
 41
2.4384
 42
1.3208
 43
1.0000
 50
0.0000
  0
INSERT
  8
29
  2
RECT
 10
34.5440
 20
69.8500
 30
0.0000
 41
2.4384
 42
1.3208
 43
1.0000
 50
0.0000
  0
INSERT
  8
29
  2
RECT
 10
43.5610
 20
69.8500
 30
0.0000
 41
2.4384
 42
1.3208
 43
1.0000
 50
0.0000
  0
INSERT
  8
29
  2
RECT
 10
43.5610
 20
65.0494
 30
0.0000
 41
2.4384
 42
1.3208
 43
1.0000
 50
0.0000
  0
INSERT
  8
29
  2
RECT
 10
34.5440
 20
65.0494
 30
0.0000
 41
2.4384
 42
1.3208
 43
1.0000
 50
0.0000
  0
INSERT
  8
29
  2
RECT
 10
34.5440
 20
31.7500
 30
0.0000
 41
2.4384
 42
1.3208
 43
1.0000
 50
0.0000
  0
INSERT
  8
29
  2
RECT
 10
43.5610
 20
31.7500
 30
0.0000
 41
2.4384
 42
1.3208
 43
1.0000
 50
0.0000
  0
INSERT
  8
29
  2
RECT
 10
43.5610
 20
26.9494
 30
0.0000
 41
2.4384
 42
1.3208
 43
1.0000
 50
0.0000
  0
INSERT
  8
29
  2
RECT
 10
34.5440
 20
26.9494
 30
0.0000
 41
2.4384
 42
1.3208
 43
1.0000
 50
0.0000
  0
INSERT
  8
29
  2
RECT
 10
5.3340
 20
71.1200
 30
0.0000
 41
2.4384
 42
1.3208
 43
1.0000
 50
0.0000
  0
INSERT
  8
29
  2
RECT
 10
14.3510
 20
71.1200
 30
0.0000
 41
2.4384
 42
1.3208
 43
1.0000
 50
0.0000
  0
INSERT
  8
29
  2
RECT
 10
14.3510
 20
66.3194
 30
0.0000
 41
2.4384
 42
1.3208
 43
1.0000
 50
0.0000
  0
INSERT
  8
29
  2
RECT
 10
5.3340
 20
66.3194
 30
0.0000
 41
2.4384
 42
1.3208
 43
1.0000
 50
0.0000
  0
INSERT
  8
29
  2
RECT
 10
33.2906
 20
11.6389
 30
0.0000
 41
2.4384
 42
1.3208
 43
1.0000
 50
0.0000
  0
INSERT
  8
29
  2
RECT
 10
42.3076
 20
11.6389
 30
0.0000
 41
2.4384
 42
1.3208
 43
1.0000
 50
0.0000
  0
INSERT
  8
29
  2
RECT
 10
42.3076
 20
6.8383
 30
0.0000
 41
2.4384
 42
1.3208
 43
1.0000
 50
0.0000
  0
INSERT
  8
29
  2
RECT
 10
33.2906
 20
6.8383
 30
0.0000
 41
2.4384
 42
1.3208
 43
1.0000
 50
0.0000
  0
POLYLINE
  8
21
 66
1
 10
0.0000
 20
0.0000
 30
0.0000
 40
0.2032
 41
0.2032
 70
0
  0
VERTEX
  8
21
 10
18.7198
 20
37.5063
 30
0.0000
  0
VERTEX
  8
21
 10
10.2362
 20
37.5063
 30
0.0000
  0
SEQEND
  8
0
  0
POLYLINE
  8
21
 66
1
 10
0.0000
 20
0.0000
 30
0.0000
 40
0.1016
 41
0.1016
 70
0
  0
VERTEX
  8
21
 10
10.2362
 20
37.5571
 30
0.0000
 42
1.0000
  0
VERTEX
  8
21
 10
10.2362
 20
37.4555
 30
0.0000
  0
SEQEND
  8
0
  0
POLYLINE
  8
21
 66
1
 10
0.0000
 20
0.0000
 30
0.0000
 40
0.1016
 41
0.1016
 70
0
  0
VERTEX
  8
21
 10
18.7198
 20
37.4555
 30
0.0000
 42
1.0000
  0
VERTEX
  8
21
 10
18.7198
 20
37.5571
 30
0.0000
  0
SEQEND
  8
0
  0
POLYLINE
  8
21
 66
1
 10
0.0000
 20
0.0000
 30
0.0000
 40
0.2032
 41
0.2032
 70
0
  0
VERTEX
  8
21
 10
18.8198
 20
33.6137
 30
0.0000
 42
0.4142
  0
VERTEX
  8
21
 10
19.1008
 20
33.9947
 30
0.0000
  0
SEQEND
  8
0
  0
POLYLINE
  8
21
 66
1
 10
0.0000
 20
0.0000
 30
0.0000
 40
0.1016
 41
0.1016
 70
0
  0
VERTEX
  8
21
 10
18.8122
 20
33.6639
 30
0.0000
 42
1.0000
  0
VERTEX
  8
21
 10
18.8274
 20
33.5635
 30
0.0000
  0
SEQEND
  8
0
  0
POLYLINE
  8
21
 66
1
 10
0.0000
 20
0.0000
 30
0.0000
 40
0.1016
 41
0.1016
 70
0
  0
VERTEX
  8
21
 10
19.1510
 20
34.0023
 30
0.0000
 42
1.0000
  0
VERTEX
  8
21
 10
19.0506
 20
33.9871
 30
0.0000
  0
SEQEND
  8
0
  0
POLYLINE
  8
21
 66
1
 10
0.0000
 20
0.0000
 30
0.0000
 40
0.2032
 41
0.2032
 70
0
  0
VERTEX
  8
21
 10
10.2362
 20
37.5063
 30
0.0000
 42
0.4143
  0
VERTEX
  8
21
 10
9.8552
 20
37.0253
 30
0.0000
  0
SEQEND
  8
0
  0
POLYLINE
  8
21
 66
1
 10
0.0000
 20
0.0000
 30
0.0000
 40
0.1016
 41
0.1016
 70
0
  0
VERTEX
  8
21
 10
10.2420
 20
37.4558
 30
0.0000
 42
1.0000
  0
VERTEX
  8
21
 10
10.2304
 20
37.5568
 30
0.0000
  0
SEQEND
  8
0
  0
POLYLINE
  8
21
 66
1
 10
0.0000
 20
0.0000
 30
0.0000
 40
0.1016
 41
0.1016
 70
0
  0
VERTEX
  8
21
 10
9.8047
 20
37.0194
 30
0.0000
 42
1.0000
  0
VERTEX
  8
21
 10
9.9057
 20
37.0312
 30
0.0000
  0
SEQEND
  8
0
  0
POLYLINE
  8
21
 66
1
 10
0.0000
 20
0.0000
 30
0.0000
 40
0.2032
 41
0.2032
 70
0
  0
VERTEX
  8
21
 10
19.1008
 20
37.1253
 30
0.0000
 42
0.4144
  0
VERTEX
  8
21
 10
18.7198
 20
37.5063
 30
0.0000
  0
SEQEND
  8
0
  0
POLYLINE
  8
21
 66
1
 10
0.0000
 20
0.0000
 30
0.0000
 40
0.1016
 41
0.1016
 70
0
  0
VERTEX
  8
21
 10
19.0500
 20
37.1253
 30
0.0000
 42
1.0000
  0
VERTEX
  8
21
 10
19.1516
 20
37.1253
 30
0.0000
  0
SEQEND
  8
0
  0
POLYLINE
  8
21
 66
1
 10
0.0000
 20
0.0000
 30
0.0000
 40
0.1016
 41
0.1016
 70
0
  0
VERTEX
  8
21
 10
18.7198
 20
37.5571
 30
0.0000
 42
1.0000
  0
VERTEX
  8
21
 10
18.7198
 20
37.4555
 30
0.0000
  0
SEQEND
  8
0
  0
POLYLINE
  8
21
 66
1
 10
0.0000
 20
0.0000
 30
0.0000
 40
0.2032
 41
0.2032
 70
0
  0
VERTEX
  8
21
 10
9.8552
 20
33.8947
 30
0.0000
 42
0.4145
  0
VERTEX
  8
21
 10
10.2362
 20
33.6137
 30
0.0000
  0
SEQEND
  8
0
  0
POLYLINE
  8
21
 66
1
 10
0.0000
 20
0.0000
 30
0.0000
 40
0.1016
 41
0.1016
 70
0
  0
VERTEX
  8
21
 10
9.9054
 20
33.9023
 30
0.0000
 42
1.0000
  0
VERTEX
  8
21
 10
9.8050
 20
33.8871
 30
0.0000
  0
SEQEND
  8
0
  0
POLYLINE
  8
21
 66
1
 10
0.0000
 20
0.0000
 30
0.0000
 40
0.1016
 41
0.1016
 70
0
  0
VERTEX
  8
21
 10
10.2438
 20
33.5635
 30
0.0000
 42
1.0000
  0
VERTEX
  8
21
 10
10.2286
 20
33.6639
 30
0.0000
  0
SEQEND
  8
0
  0
POLYLINE
  8
21
 66
1
 10
0.0000
 20
0.0000
 30
0.0000
 40
0.2032
 41
0.2032
 70
0
  0
VERTEX
  8
21
 10
10.2362
 20
33.6137
 30
0.0000
  0
VERTEX
  8
21
 10
18.8198
 20
33.6137
 30
0.0000
  0
SEQEND
  8
0
  0
POLYLINE
  8
21
 66
1
 10
0.0000
 20
0.0000
 30
0.0000
 40
0.1016
 41
0.1016
 70
0
  0
VERTEX
  8
21
 10
18.8198
 20
33.5629
 30
0.0000
 42
1.0000
  0
VERTEX
  8
21
 10
18.8198
 20
33.6645
 30
0.0000
  0
SEQEND
  8
0
  0
POLYLINE
  8
21
 66
1
 10
0.0000
 20
0.0000
 30
0.0000
 40
0.1016
 41
0.1016
 70
0
  0
VERTEX
  8
21
 10
10.2362
 20
33.6645
 30
0.0000
 42
1.0000
  0
VERTEX
  8
21
 10
10.2362
 20
33.5629
 30
0.0000
  0
SEQEND
  8
0
  0
POLYLINE
  8
21
 66
1
 10
0.0000
 20
0.0000
 30
0.0000
 40
0.2032
 41
0.2032
 70
0
  0
VERTEX
  8
21
 10
19.1008
 20
33.9947
 30
0.0000
  0
VERTEX
  8
21
 10
19.1008
 20
37.1253
 30
0.0000
  0
SEQEND
  8
0
  0
POLYLINE
  8
21
 66
1
 10
0.0000
 20
0.0000
 30
0.0000
 40
0.1016
 41
0.1016
 70
0
  0
VERTEX
  8
21
 10
19.1516
 20
37.1253
 30
0.0000
 42
1.0000
  0
VERTEX
  8
21
 10
19.0500
 20
37.1253
 30
0.0000
  0
SEQEND
  8
0
  0
POLYLINE
  8
21
 66
1
 10
0.0000
 20
0.0000
 30
0.0000
 40
0.1016
 41
0.1016
 70
0
  0
VERTEX
  8
21
 10
19.0500
 20
33.9947
 30
0.0000
 42
1.0000
  0
VERTEX
  8
21
 10
19.1516
 20
33.9947
 30
0.0000
  0
SEQEND
  8
0
  0
POLYLINE
  8
21
 66
1
 10
0.0000
 20
0.0000
 30
0.0000
 40
0.2032
 41
0.2032
 70
0
  0
VERTEX
  8
21
 10
9.9060
 20
34.8996
 30
0.0000
 42
1.0000
  0
VERTEX
  8
21
 10
9.9060
 20
36.1696
 30
0.0000
  0
SEQEND
  8
0
  0
POLYLINE
  8
21
 66
1
 10
0.0000
 20
0.0000
 30
0.0000
 40
0.1016
 41
0.1016
 70
0
  0
VERTEX
  8
21
 10
9.9060
 20
34.9504
 30
0.0000
 42
1.0000
  0
VERTEX
  8
21
 10
9.9060
 20
34.8488
 30
0.0000
  0
SEQEND
  8
0
  0
POLYLINE
  8
21
 66
1
 10
0.0000
 20
0.0000
 30
0.0000
 40
0.1016
 41
0.1016
 70
0
  0
VERTEX
  8
21
 10
9.9060
 20
36.2204
 30
0.0000
 42
1.0000
  0
VERTEX
  8
21
 10
9.9060
 20
36.1188
 30
0.0000
  0
SEQEND
  8
0
  0
POLYLINE
  8
21
 66
1
 10
0.0000
 20
0.0000
 30
0.0000
 40
0.2032
 41
0.2032
 70
0
  0
VERTEX
  8
21
 10
9.8552
 20
37.0126
 30
0.0000
  0
VERTEX
  8
21
 10
9.8552
 20
36.1696
 30
0.0000
  0
SEQEND
  8
0
  0
POLYLINE
  8
21
 66
1
 10
0.0000
 20
0.0000
 30
0.0000
 40
0.1016
 41
0.1016
 70
0
  0
VERTEX
  8
21
 10
9.8044
 20
36.1696
 30
0.0000
 42
1.0000
  0
VERTEX
  8
21
 10
9.9060
 20
36.1696
 30
0.0000
  0
SEQEND
  8
0
  0
POLYLINE
  8
21
 66
1
 10
0.0000
 20
0.0000
 30
0.0000
 40
0.1016
 41
0.1016
 70
0
  0
VERTEX
  8
21
 10
9.9060
 20
37.0126
 30
0.0000
 42
1.0000
  0
VERTEX
  8
21
 10
9.8044
 20
37.0126
 30
0.0000
  0
SEQEND
  8
0
  0
POLYLINE
  8
21
 66
1
 10
0.0000
 20
0.0000
 30
0.0000
 40
0.2032
 41
0.2032
 70
0
  0
VERTEX
  8
21
 10
9.8552
 20
33.8947
 30
0.0000
  0
VERTEX
  8
21
 10
9.8552
 20
34.8996
 30
0.0000
  0
SEQEND
  8
0
  0
POLYLINE
  8
21
 66
1
 10
0.0000
 20
0.0000
 30
0.0000
 40
0.1016
 41
0.1016
 70
0
  0
VERTEX
  8
21
 10
9.9060
 20
34.8996
 30
0.0000
 42
1.0000
  0
VERTEX
  8
21
 10
9.8044
 20
34.8996
 30
0.0000
  0
SEQEND
  8
0
  0
POLYLINE
  8
21
 66
1
 10
0.0000
 20
0.0000
 30
0.0000
 40
0.1016
 41
0.1016
 70
0
  0
VERTEX
  8
21
 10
9.8044
 20
33.8947
 30
0.0000
 42
1.0000
  0
VERTEX
  8
21
 10
9.9060
 20
33.8947
 30
0.0000
  0
SEQEND
  8
0
  0
INSERT
  8
29
  2
RECT
 10
10.6680
 20
32.7600
 30
0.0000
 41
0.8540
 42
1.4540
 43
1.0000
 50
0.0000
  0
INSERT
  8
29
  2
RECT
 10
11.9380
 20
32.7600
 30
0.0000
 41
0.8540
 42
1.4540
 43
1.0000
 50
0.0000
  0
INSERT
  8
29
  2
RECT
 10
13.2080
 20
32.7600
 30
0.0000
 41
0.8540
 42
1.4540
 43
1.0000
 50
0.0000
  0
INSERT
  8
29
  2
RECT
 10
14.4780
 20
32.7600
 30
0.0000
 41
0.8540
 42
1.4540
 43
1.0000
 50
0.0000
  0
INSERT
  8
29
  2
RECT
 10
15.7480
 20
32.7600
 30
0.0000
 41
0.8540
 42
1.4540
 43
1.0000
 50
0.0000
  0
INSERT
  8
29
  2
RECT
 10
17.0180
 20
32.7600
 30
0.0000
 41
0.8540
 42
1.4540
 43
1.0000
 50
0.0000
  0
INSERT
  8
29
  2
RECT
 10
18.2880
 20
32.7600
 30
0.0000
 41
0.8540
 42
1.4540
 43
1.0000
 50
0.0000
  0
INSERT
  8
29
  2
RECT
 10
18.2880
 20
38.3600
 30
0.0000
 41
0.8540
 42
1.4540
 43
1.0000
 50
0.0000
  0
INSERT
  8
29
  2
RECT
 10
17.0180
 20
38.3600
 30
0.0000
 41
0.8540
 42
1.4540
 43
1.0000
 50
0.0000
  0
INSERT
  8
29
  2
RECT
 10
15.7480
 20
38.3600
 30
0.0000
 41
0.8540
 42
1.4540
 43
1.0000
 50
0.0000
  0
INSERT
  8
29
  2
RECT
 10
14.4780
 20
38.3600
 30
0.0000
 41
0.8540
 42
1.4540
 43
1.0000
 50
0.0000
  0
INSERT
  8
29
  2
RECT
 10
13.2080
 20
38.3600
 30
0.0000
 41
0.8540
 42
1.4540
 43
1.0000
 50
0.0000
  0
INSERT
  8
29
  2
RECT
 10
11.9380
 20
38.3600
 30
0.0000
 41
0.8540
 42
1.4540
 43
1.0000
 50
0.0000
  0
INSERT
  8
29
  2
RECT
 10
10.6680
 20
38.3600
 30
0.0000
 41
0.8540
 42
1.4540
 43
1.0000
 50
0.0000
  0
POLYLINE
  8
21
 66
1
 10
0.0000
 20
0.0000
 30
0.0000
 40
0.2032
 41
0.2032
 70
0
  0
VERTEX
  8
21
 10
13.4366
 20
23.3680
 30
0.0000
  0
VERTEX
  8
21
 10
13.4366
 20
19.8120
 30
0.0000
  0
SEQEND
  8
0
  0
POLYLINE
  8
21
 66
1
 10
0.0000
 20
0.0000
 30
0.0000
 40
0.1016
 41
0.1016
 70
0
  0
VERTEX
  8
21
 10
13.3858
 20
19.8120
 30
0.0000
 42
1.0000
  0
VERTEX
  8
21
 10
13.4874
 20
19.8120
 30
0.0000
  0
SEQEND
  8
0
  0
POLYLINE
  8
21
 66
1
 10
0.0000
 20
0.0000
 30
0.0000
 40
0.1016
 41
0.1016
 70
0
  0
VERTEX
  8
21
 10
13.4874
 20
23.3680
 30
0.0000
 42
1.0000
  0
VERTEX
  8
21
 10
13.3858
 20
23.3680
 30
0.0000
  0
SEQEND
  8
0
  0
POLYLINE
  8
21
 66
1
 10
0.0000
 20
0.0000
 30
0.0000
 40
0.2032
 41
0.2032
 70
0
  0
VERTEX
  8
21
 10
13.4366
 20
19.8120
 30
0.0000
  0
VERTEX
  8
21
 10
6.8834
 20
19.8120
 30
0.0000
  0
SEQEND
  8
0
  0
POLYLINE
  8
21
 66
1
 10
0.0000
 20
0.0000
 30
0.0000
 40
0.1016
 41
0.1016
 70
0
  0
VERTEX
  8
21
 10
6.8834
 20
19.8628
 30
0.0000
 42
1.0000
  0
VERTEX
  8
21
 10
6.8834
 20
19.7612
 30
0.0000
  0
SEQEND
  8
0
  0
POLYLINE
  8
21
 66
1
 10
0.0000
 20
0.0000
 30
0.0000
 40
0.1016
 41
0.1016
 70
0
  0
VERTEX
  8
21
 10
13.4366
 20
19.7612
 30
0.0000
 42
1.0000
  0
VERTEX
  8
21
 10
13.4366
 20
19.8628
 30
0.0000
  0
SEQEND
  8
0
  0
POLYLINE
  8
21
 66
1
 10
0.0000
 20
0.0000
 30
0.0000
 40
0.2032
 41
0.2032
 70
0
  0
VERTEX
  8
21
 10
6.8834
 20
19.8120
 30
0.0000
  0
VERTEX
  8
21
 10
6.8834
 20
23.3680
 30
0.0000
  0
SEQEND
  8
0
  0
POLYLINE
  8
21
 66
1
 10
0.0000
 20
0.0000
 30
0.0000
 40
0.1016
 41
0.1016
 70
0
  0
VERTEX
  8
21
 10
6.9342
 20
23.3680
 30
0.0000
 42
1.0000
  0
VERTEX
  8
21
 10
6.8326
 20
23.3680
 30
0.0000
  0
SEQEND
  8
0
  0
POLYLINE
  8
21
 66
1
 10
0.0000
 20
0.0000
 30
0.0000
 40
0.1016
 41
0.1016
 70
0
  0
VERTEX
  8
21
 10
6.8326
 20
19.8120
 30
0.0000
 42
1.0000
  0
VERTEX
  8
21
 10
6.9342
 20
19.8120
 30
0.0000
  0
SEQEND
  8
0
  0
POLYLINE
  8
21
 66
1
 10
0.0000
 20
0.0000
 30
0.0000
 40
0.2032
 41
0.2032
 70
0
  0
VERTEX
  8
21
 10
6.8834
 20
23.3680
 30
0.0000
  0
VERTEX
  8
21
 10
13.4366
 20
23.3680
 30
0.0000
  0
SEQEND
  8
0
  0
POLYLINE
  8
21
 66
1
 10
0.0000
 20
0.0000
 30
0.0000
 40
0.1016
 41
0.1016
 70
0
  0
VERTEX
  8
21
 10
13.4366
 20
23.3172
 30
0.0000
 42
1.0000
  0
VERTEX
  8
21
 10
13.4366
 20
23.4188
 30
0.0000
  0
SEQEND
  8
0
  0
POLYLINE
  8
21
 66
1
 10
0.0000
 20
0.0000
 30
0.0000
 40
0.1016
 41
0.1016
 70
0
  0
VERTEX
  8
21
 10
6.8834
 20
23.4188
 30
0.0000
 42
1.0000
  0
VERTEX
  8
21
 10
6.8834
 20
23.3172
 30
0.0000
  0
SEQEND
  8
0
  0
POLYLINE
  8
21
 66
1
 10
0.0000
 20
0.0000
 30
0.0000
 40
0.1016
 41
0.1016
 70
0
  0
VERTEX
  8
21
 10
11.2316
 20
17.9160
 30
0.0000
  0
VERTEX
  8
21
 10
11.3502
 20
18.0346
 30
0.0000
  0
SEQEND
  8
0
  0
POLYLINE
  8
21
 66
1
 10
0.0000
 20
0.0000
 30
0.0000
 40
0.0508
 41
0.0508
 70
0
  0
VERTEX
  8
21
 10
11.3682
 20
18.0166
 30
0.0000
 42
1.0000
  0
VERTEX
  8
21
 10
11.3323
 20
18.0526
 30
0.0000
  0
SEQEND
  8
0
  0
POLYLINE
  8
21
 66
1
 10
0.0000
 20
0.0000
 30
0.0000
 40
0.0508
 41
0.0508
 70
0
  0
VERTEX
  8
21
 10
11.2136
 20
17.9339
 30
0.0000
 42
1.0000
  0
VERTEX
  8
21
 10
11.2496
 20
17.8980
 30
0.0000
  0
SEQEND
  8
0
  0
POLYLINE
  8
21
 66
1
 10
0.0000
 20
0.0000
 30
0.0000
 40
0.1016
 41
0.1016
 70
0
  0
VERTEX
  8
21
 10
11.3502
 20
18.0346
 30
0.0000
  0
VERTEX
  8
21
 10
11.5875
 20
18.0346
 30
0.0000
  0
SEQEND
  8
0
  0
POLYLINE
  8
21
 66
1
 10
0.0000
 20
0.0000
 30
0.0000
 40
0.0508
 41
0.0508
 70
0
  0
VERTEX
  8
21
 10
11.5875
 20
18.0092
 30
0.0000
 42
1.0000
  0
VERTEX
  8
21
 10
11.5875
 20
18.0600
 30
0.0000
  0
SEQEND
  8
0
  0
POLYLINE
  8
21
 66
1
 10
0.0000
 20
0.0000
 30
0.0000
 40
0.0508
 41
0.0508
 70
0
  0
VERTEX
  8
21
 10
11.3502
 20
18.0600
 30
0.0000
 42
1.0000
  0
VERTEX
  8
21
 10
11.3502
 20
18.0092
 30
0.0000
  0
SEQEND
  8
0
  0
POLYLINE
  8
21
 66
1
 10
0.0000
 20
0.0000
 30
0.0000
 40
0.1016
 41
0.1016
 70
0
  0
VERTEX
  8
21
 10
11.5875
 20
18.0346
 30
0.0000
  0
VERTEX
  8
21
 10
11.7061
 20
17.9160
 30
0.0000
  0
SEQEND
  8
0
  0
POLYLINE
  8
21
 66
1
 10
0.0000
 20
0.0000
 30
0.0000
 40
0.0508
 41
0.0508
 70
0
  0
VERTEX
  8
21
 10
11.6882
 20
17.8980
 30
0.0000
 42
1.0000
  0
VERTEX
  8
21
 10
11.7241
 20
17.9339
 30
0.0000
  0
SEQEND
  8
0
  0
POLYLINE
  8
21
 66
1
 10
0.0000
 20
0.0000
 30
0.0000
 40
0.0508
 41
0.0508
 70
0
  0
VERTEX
  8
21
 10
11.6055
 20
18.0526
 30
0.0000
 42
1.0000
  0
VERTEX
  8
21
 10
11.5695
 20
18.0166
 30
0.0000
  0
SEQEND
  8
0
  0
POLYLINE
  8
21
 66
1
 10
0.0000
 20
0.0000
 30
0.0000
 40
0.1016
 41
0.1016
 70
0
  0
VERTEX
  8
21
 10
11.7061
 20
17.9160
 30
0.0000
  0
VERTEX
  8
21
 10
11.7061
 20
17.7973
 30
0.0000
  0
SEQEND
  8
0
  0
POLYLINE
  8
21
 66
1
 10
0.0000
 20
0.0000
 30
0.0000
 40
0.0508
 41
0.0508
 70
0
  0
VERTEX
  8
21
 10
11.6807
 20
17.7973
 30
0.0000
 42
1.0000
  0
VERTEX
  8
21
 10
11.7315
 20
17.7973
 30
0.0000
  0
SEQEND
  8
0
  0
POLYLINE
  8
21
 66
1
 10
0.0000
 20
0.0000
 30
0.0000
 40
0.0508
 41
0.0508
 70
0
  0
VERTEX
  8
21
 10
11.7315
 20
17.9160
 30
0.0000
 42
1.0000
  0
VERTEX
  8
21
 10
11.6807
 20
17.9160
 30
0.0000
  0
SEQEND
  8
0
  0
POLYLINE
  8
21
 66
1
 10
0.0000
 20
0.0000
 30
0.0000
 40
0.1016
 41
0.1016
 70
0
  0
VERTEX
  8
21
 10
11.7061
 20
17.7973
 30
0.0000
  0
VERTEX
  8
21
 10
11.5875
 20
17.6787
 30
0.0000
  0
SEQEND
  8
0
  0
POLYLINE
  8
21
 66
1
 10
0.0000
 20
0.0000
 30
0.0000
 40
0.0508
 41
0.0508
 70
0
  0
VERTEX
  8
21
 10
11.5695
 20
17.6967
 30
0.0000
 42
1.0000
  0
VERTEX
  8
21
 10
11.6055
 20
17.6607
 30
0.0000
  0
SEQEND
  8
0
  0
POLYLINE
  8
21
 66
1
 10
0.0000
 20
0.0000
 30
0.0000
 40
0.0508
 41
0.0508
 70
0
  0
VERTEX
  8
21
 10
11.7241
 20
17.7794
 30
0.0000
 42
1.0000
  0
VERTEX
  8
21
 10
11.6882
 20
17.8153
 30
0.0000
  0
SEQEND
  8
0
  0
POLYLINE
  8
21
 66
1
 10
0.0000
 20
0.0000
 30
0.0000
 40
0.1016
 41
0.1016
 70
0
  0
VERTEX
  8
21
 10
11.5875
 20
17.6787
 30
0.0000
  0
VERTEX
  8
21
 10
11.4689
 20
17.6787
 30
0.0000
  0
SEQEND
  8
0
  0
POLYLINE
  8
21
 66
1
 10
0.0000
 20
0.0000
 30
0.0000
 40
0.0508
 41
0.0508
 70
0
  0
VERTEX
  8
21
 10
11.4689
 20
17.7041
 30
0.0000
 42
1.0000
  0
VERTEX
  8
21
 10
11.4689
 20
17.6533
 30
0.0000
  0
SEQEND
  8
0
  0
POLYLINE
  8
21
 66
1
 10
0.0000
 20
0.0000
 30
0.0000
 40
0.0508
 41
0.0508
 70
0
  0
VERTEX
  8
21
 10
11.5875
 20
17.6533
 30
0.0000
 42
1.0000
  0
VERTEX
  8
21
 10
11.5875
 20
17.7041
 30
0.0000
  0
SEQEND
  8
0
  0
POLYLINE
  8
21
 66
1
 10
0.0000
 20
0.0000
 30
0.0000
 40
0.1016
 41
0.1016
 70
0
  0
VERTEX
  8
21
 10
11.5875
 20
17.6787
 30
0.0000
  0
VERTEX
  8
21
 10
11.7061
 20
17.5601
 30
0.0000
  0
SEQEND
  8
0
  0
POLYLINE
  8
21
 66
1
 10
0.0000
 20
0.0000
 30
0.0000
 40
0.0508
 41
0.0508
 70
0
  0
VERTEX
  8
21
 10
11.6882
 20
17.5421
 30
0.0000
 42
1.0000
  0
VERTEX
  8
21
 10
11.7241
 20
17.5780
 30
0.0000
  0
SEQEND
  8
0
  0
POLYLINE
  8
21
 66
1
 10
0.0000
 20
0.0000
 30
0.0000
 40
0.0508
 41
0.0508
 70
0
  0
VERTEX
  8
21
 10
11.6055
 20
17.6967
 30
0.0000
 42
1.0000
  0
VERTEX
  8
21
 10
11.5695
 20
17.6607
 30
0.0000
  0
SEQEND
  8
0
  0
POLYLINE
  8
21
 66
1
 10
0.0000
 20
0.0000
 30
0.0000
 40
0.1016
 41
0.1016
 70
0
  0
VERTEX
  8
21
 10
11.7061
 20
17.5601
 30
0.0000
  0
VERTEX
  8
21
 10
11.7061
 20
17.4414
 30
0.0000
  0
SEQEND
  8
0
  0
POLYLINE
  8
21
 66
1
 10
0.0000
 20
0.0000
 30
0.0000
 40
0.0508
 41
0.0508
 70
0
  0
VERTEX
  8
21
 10
11.6807
 20
17.4414
 30
0.0000
 42
1.0000
  0
VERTEX
  8
21
 10
11.7315
 20
17.4414
 30
0.0000
  0
SEQEND
  8
0
  0
POLYLINE
  8
21
 66
1
 10
0.0000
 20
0.0000
 30
0.0000
 40
0.0508
 41
0.0508
 70
0
  0
VERTEX
  8
21
 10
11.7315
 20
17.5601
 30
0.0000
 42
1.0000
  0
VERTEX
  8
21
 10
11.6807
 20
17.5601
 30
0.0000
  0
SEQEND
  8
0
  0
POLYLINE
  8
21
 66
1
 10
0.0000
 20
0.0000
 30
0.0000
 40
0.1016
 41
0.1016
 70
0
  0
VERTEX
  8
21
 10
11.7061
 20
17.4414
 30
0.0000
  0
VERTEX
  8
21
 10
11.5875
 20
17.3228
 30
0.0000
  0
SEQEND
  8
0
  0
POLYLINE
  8
21
 66
1
 10
0.0000
 20
0.0000
 30
0.0000
 40
0.0508
 41
0.0508
 70
0
  0
VERTEX
  8
21
 10
11.5695
 20
17.3408
 30
0.0000
 42
1.0000
  0
VERTEX
  8
21
 10
11.6055
 20
17.3048
 30
0.0000
  0
SEQEND
  8
0
  0
POLYLINE
  8
21
 66
1
 10
0.0000
 20
0.0000
 30
0.0000
 40
0.0508
 41
0.0508
 70
0
  0
VERTEX
  8
21
 10
11.7241
 20
17.4235
 30
0.0000
 42
1.0000
  0
VERTEX
  8
21
 10
11.6882
 20
17.4594
 30
0.0000
  0
SEQEND
  8
0
  0
POLYLINE
  8
21
 66
1
 10
0.0000
 20
0.0000
 30
0.0000
 40
0.1016
 41
0.1016
 70
0
  0
VERTEX
  8
21
 10
11.5875
 20
17.3228
 30
0.0000
  0
VERTEX
  8
21
 10
11.3502
 20
17.3228
 30
0.0000
  0
SEQEND
  8
0
  0
POLYLINE
  8
21
 66
1
 10
0.0000
 20
0.0000
 30
0.0000
 40
0.0508
 41
0.0508
 70
0
  0
VERTEX
  8
21
 10
11.3502
 20
17.3482
 30
0.0000
 42
1.0000
  0
VERTEX
  8
21
 10
11.3502
 20
17.2974
 30
0.0000
  0
SEQEND
  8
0
  0
POLYLINE
  8
21
 66
1
 10
0.0000
 20
0.0000
 30
0.0000
 40
0.0508
 41
0.0508
 70
0
  0
VERTEX
  8
21
 10
11.5875
 20
17.2974
 30
0.0000
 42
1.0000
  0
VERTEX
  8
21
 10
11.5875
 20
17.3482
 30
0.0000
  0
SEQEND
  8
0
  0
POLYLINE
  8
21
 66
1
 10
0.0000
 20
0.0000
 30
0.0000
 40
0.1016
 41
0.1016
 70
0
  0
VERTEX
  8
21
 10
11.3502
 20
17.3228
 30
0.0000
  0
VERTEX
  8
21
 10
11.2316
 20
17.4414
 30
0.0000
  0
SEQEND
  8
0
  0
POLYLINE
  8
21
 66
1
 10
0.0000
 20
0.0000
 30
0.0000
 40
0.0508
 41
0.0508
 70
0
  0
VERTEX
  8
21
 10
11.2496
 20
17.4594
 30
0.0000
 42
1.0000
  0
VERTEX
  8
21
 10
11.2136
 20
17.4235
 30
0.0000
  0
SEQEND
  8
0
  0
POLYLINE
  8
21
 66
1
 10
0.0000
 20
0.0000
 30
0.0000
 40
0.0508
 41
0.0508
 70
0
  0
VERTEX
  8
21
 10
11.3323
 20
17.3048
 30
0.0000
 42
1.0000
  0
VERTEX
  8
21
 10
11.3682
 20
17.3408
 30
0.0000
  0
SEQEND
  8
0
  0
POLYLINE
  8
21
 66
1
 10
0.0000
 20
0.0000
 30
0.0000
 40
0.1016
 41
0.1016
 70
0
  0
VERTEX
  8
21
 10
12.4717
 20
24.1808
 30
0.0000
  0
VERTEX
  8
21
 10
12.4717
 20
24.8926
 30
0.0000
  0
SEQEND
  8
0
  0
POLYLINE
  8
21
 66
1
 10
0.0000
 20
0.0000
 30
0.0000
 40
0.0508
 41
0.0508
 70
0
  0
VERTEX
  8
21
 10
12.4971
 20
24.8926
 30
0.0000
 42
1.0000
  0
VERTEX
  8
21
 10
12.4463
 20
24.8926
 30
0.0000
  0
SEQEND
  8
0
  0
POLYLINE
  8
21
 66
1
 10
0.0000
 20
0.0000
 30
0.0000
 40
0.0508
 41
0.0508
 70
0
  0
VERTEX
  8
21
 10
12.4463
 20
24.1808
 30
0.0000
 42
1.0000
  0
VERTEX
  8
21
 10
12.4971
 20
24.1808
 30
0.0000
  0
SEQEND
  8
0
  0
POLYLINE
  8
21
 66
1
 10
0.0000
 20
0.0000
 30
0.0000
 40
0.1016
 41
0.1016
 70
0
  0
VERTEX
  8
21
 10
12.4717
 20
24.8926
 30
0.0000
  0
VERTEX
  8
21
 10
12.1158
 20
24.5367
 30
0.0000
  0
SEQEND
  8
0
  0
POLYLINE
  8
21
 66
1
 10
0.0000
 20
0.0000
 30
0.0000
 40
0.0508
 41
0.0508
 70
0
  0
VERTEX
  8
21
 10
12.0978
 20
24.5547
 30
0.0000
 42
1.0000
  0
VERTEX
  8
21
 10
12.1338
 20
24.5187
 30
0.0000
  0
SEQEND
  8
0
  0
POLYLINE
  8
21
 66
1
 10
0.0000
 20
0.0000
 30
0.0000
 40
0.0508
 41
0.0508
 70
0
  0
VERTEX
  8
21
 10
12.4897
 20
24.8746
 30
0.0000
 42
1.0000
  0
VERTEX
  8
21
 10
12.4537
 20
24.9106
 30
0.0000
  0
SEQEND
  8
0
  0
POLYLINE
  8
21
 66
1
 10
0.0000
 20
0.0000
 30
0.0000
 40
0.1016
 41
0.1016
 70
0
  0
VERTEX
  8
21
 10
12.1158
 20
24.5367
 30
0.0000
  0
VERTEX
  8
21
 10
12.5903
 20
24.5367
 30
0.0000
  0
SEQEND
  8
0
  0
POLYLINE
  8
21
 66
1
 10
0.0000
 20
0.0000
 30
0.0000
 40
0.0508
 41
0.0508
 70
0
  0
VERTEX
  8
21
 10
12.5903
 20
24.5113
 30
0.0000
 42
1.0000
  0
VERTEX
  8
21
 10
12.5903
 20
24.5621
 30
0.0000
  0
SEQEND
  8
0
  0
POLYLINE
  8
21
 66
1
 10
0.0000
 20
0.0000
 30
0.0000
 40
0.0508
 41
0.0508
 70
0
  0
VERTEX
  8
21
 10
12.1158
 20
24.5621
 30
0.0000
 42
1.0000
  0
VERTEX
  8
21
 10
12.1158
 20
24.5113
 30
0.0000
  0
SEQEND
  8
0
  0
POLYLINE
  8
21
 66
1
 10
0.0000
 20
0.0000
 30
0.0000
 40
0.1016
 41
0.1016
 70
0
  0
VERTEX
  8
21
 10
6.7582
 20
17.7973
 30
0.0000
  0
VERTEX
  8
21
 10
6.9955
 20
18.0346
 30
0.0000
  0
SEQEND
  8
0
  0
POLYLINE
  8
21
 66
1
 10
0.0000
 20
0.0000
 30
0.0000
 40
0.0508
 41
0.0508
 70
0
  0
VERTEX
  8
21
 10
7.0134
 20
18.0166
 30
0.0000
 42
1.0000
  0
VERTEX
  8
21
 10
6.9775
 20
18.0526
 30
0.0000
  0
SEQEND
  8
0
  0
POLYLINE
  8
21
 66
1
 10
0.0000
 20
0.0000
 30
0.0000
 40
0.0508
 41
0.0508
 70
0
  0
VERTEX
  8
21
 10
6.7402
 20
17.8153
 30
0.0000
 42
1.0000
  0
VERTEX
  8
21
 10
6.7762
 20
17.7794
 30
0.0000
  0
SEQEND
  8
0
  0
POLYLINE
  8
21
 66
1
 10
0.0000
 20
0.0000
 30
0.0000
 40
0.1016
 41
0.1016
 70
0
  0
VERTEX
  8
21
 10
6.9955
 20
18.0346
 30
0.0000
  0
VERTEX
  8
21
 10
6.9955
 20
17.3228
 30
0.0000
  0
SEQEND
  8
0
  0
POLYLINE
  8
21
 66
1
 10
0.0000
 20
0.0000
 30
0.0000
 40
0.0508
 41
0.0508
 70
0
  0
VERTEX
  8
21
 10
6.9701
 20
17.3228
 30
0.0000
 42
1.0000
  0
VERTEX
  8
21
 10
7.0209
 20
17.3228
 30
0.0000
  0
SEQEND
  8
0
  0
POLYLINE
  8
21
 66
1
 10
0.0000
 20
0.0000
 30
0.0000
 40
0.0508
 41
0.0508
 70
0
  0
VERTEX
  8
21
 10
7.0209
 20
18.0346
 30
0.0000
 42
1.0000
  0
VERTEX
  8
21
 10
6.9701
 20
18.0346
 30
0.0000
  0
SEQEND
  8
0
  0
POLYLINE
  8
21
 66
1
 10
0.0000
 20
0.0000
 30
0.0000
 40
0.1016
 41
0.1016
 70
0
  0
VERTEX
  8
21
 10
6.7582
 20
17.3228
 30
0.0000
  0
VERTEX
  8
21
 10
7.2327
 20
17.3228
 30
0.0000
  0
SEQEND
  8
0
  0
POLYLINE
  8
21
 66
1
 10
0.0000
 20
0.0000
 30
0.0000
 40
0.0508
 41
0.0508
 70
0
  0
VERTEX
  8
21
 10
7.2327
 20
17.2974
 30
0.0000
 42
1.0000
  0
VERTEX
  8
21
 10
7.2327
 20
17.3482
 30
0.0000
  0
SEQEND
  8
0
  0
POLYLINE
  8
21
 66
1
 10
0.0000
 20
0.0000
 30
0.0000
 40
0.0508
 41
0.0508
 70
0
  0
VERTEX
  8
21
 10
6.7582
 20
17.3482
 30
0.0000
 42
1.0000
  0
VERTEX
  8
21
 10
6.7582
 20
17.2974
 30
0.0000
  0
SEQEND
  8
0
  0
POLYLINE
  8
21
 66
1
 10
0.0000
 20
0.0000
 30
0.0000
 40
0.1016
 41
0.1016
 70
0
  0
VERTEX
  8
21
 10
9.3947
 20
17.3134
 30
0.0000
  0
VERTEX
  8
21
 10
8.9202
 20
17.3134
 30
0.0000
  0
SEQEND
  8
0
  0
POLYLINE
  8
21
 66
1
 10
0.0000
 20
0.0000
 30
0.0000
 40
0.0508
 41
0.0508
 70
0
  0
VERTEX
  8
21
 10
8.9202
 20
17.3388
 30
0.0000
 42
1.0000
  0
VERTEX
  8
21
 10
8.9202
 20
17.2880
 30
0.0000
  0
SEQEND
  8
0
  0
POLYLINE
  8
21
 66
1
 10
0.0000
 20
0.0000
 30
0.0000
 40
0.0508
 41
0.0508
 70
0
  0
VERTEX
  8
21
 10
9.3947
 20
17.2880
 30
0.0000
 42
1.0000
  0
VERTEX
  8
21
 10
9.3947
 20
17.3388
 30
0.0000
  0
SEQEND
  8
0
  0
POLYLINE
  8
21
 66
1
 10
0.0000
 20
0.0000
 30
0.0000
 40
0.1016
 41
0.1016
 70
0
  0
VERTEX
  8
21
 10
8.9202
 20
17.3134
 30
0.0000
  0
VERTEX
  8
21
 10
9.3947
 20
17.7879
 30
0.0000
  0
SEQEND
  8
0
  0
POLYLINE
  8
21
 66
1
 10
0.0000
 20
0.0000
 30
0.0000
 40
0.0508
 41
0.0508
 70
0
  0
VERTEX
  8
21
 10
9.4127
 20
17.7700
 30
0.0000
 42
1.0000
  0
VERTEX
  8
21
 10
9.3768
 20
17.8059
 30
0.0000
  0
SEQEND
  8
0
  0
POLYLINE
  8
21
 66
1
 10
0.0000
 20
0.0000
 30
0.0000
 40
0.0508
 41
0.0508
 70
0
  0
VERTEX
  8
21
 10
8.9022
 20
17.3314
 30
0.0000
 42
1.0000
  0
VERTEX
  8
21
 10
8.9382
 20
17.2954
 30
0.0000
  0
SEQEND
  8
0
  0
POLYLINE
  8
21
 66
1
 10
0.0000
 20
0.0000
 30
0.0000
 40
0.1016
 41
0.1016
 70
0
  0
VERTEX
  8
21
 10
9.3947
 20
17.7879
 30
0.0000
  0
VERTEX
  8
21
 10
9.3947
 20
17.9066
 30
0.0000
  0
SEQEND
  8
0
  0
POLYLINE
  8
21
 66
1
 10
0.0000
 20
0.0000
 30
0.0000
 40
0.0508
 41
0.0508
 70
0
  0
VERTEX
  8
21
 10
9.4201
 20
17.9066
 30
0.0000
 42
1.0000
  0
VERTEX
  8
21
 10
9.3693
 20
17.9066
 30
0.0000
  0
SEQEND
  8
0
  0
POLYLINE
  8
21
 66
1
 10
0.0000
 20
0.0000
 30
0.0000
 40
0.0508
 41
0.0508
 70
0
  0
VERTEX
  8
21
 10
9.3693
 20
17.7879
 30
0.0000
 42
1.0000
  0
VERTEX
  8
21
 10
9.4201
 20
17.7879
 30
0.0000
  0
SEQEND
  8
0
  0
POLYLINE
  8
21
 66
1
 10
0.0000
 20
0.0000
 30
0.0000
 40
0.1016
 41
0.1016
 70
0
  0
VERTEX
  8
21
 10
9.3947
 20
17.9066
 30
0.0000
  0
VERTEX
  8
21
 10
9.2761
 20
18.0252
 30
0.0000
  0
SEQEND
  8
0
  0
POLYLINE
  8
21
 66
1
 10
0.0000
 20
0.0000
 30
0.0000
 40
0.0508
 41
0.0508
 70
0
  0
VERTEX
  8
21
 10
9.2941
 20
18.0432
 30
0.0000
 42
1.0000
  0
VERTEX
  8
21
 10
9.2581
 20
18.0072
 30
0.0000
  0
SEQEND
  8
0
  0
POLYLINE
  8
21
 66
1
 10
0.0000
 20
0.0000
 30
0.0000
 40
0.0508
 41
0.0508
 70
0
  0
VERTEX
  8
21
 10
9.3768
 20
17.8886
 30
0.0000
 42
1.0000
  0
VERTEX
  8
21
 10
9.4127
 20
17.9245
 30
0.0000
  0
SEQEND
  8
0
  0
POLYLINE
  8
21
 66
1
 10
0.0000
 20
0.0000
 30
0.0000
 40
0.1016
 41
0.1016
 70
0
  0
VERTEX
  8
21
 10
9.2761
 20
18.0252
 30
0.0000
  0
VERTEX
  8
21
 10
9.0388
 20
18.0252
 30
0.0000
  0
SEQEND
  8
0
  0
POLYLINE
  8
21
 66
1
 10
0.0000
 20
0.0000
 30
0.0000
 40
0.0508
 41
0.0508
 70
0
  0
VERTEX
  8
21
 10
9.0388
 20
18.0506
 30
0.0000
 42
1.0000
  0
VERTEX
  8
21
 10
9.0388
 20
17.9998
 30
0.0000
  0
SEQEND
  8
0
  0
POLYLINE
  8
21
 66
1
 10
0.0000
 20
0.0000
 30
0.0000
 40
0.0508
 41
0.0508
 70
0
  0
VERTEX
  8
21
 10
9.2761
 20
17.9998
 30
0.0000
 42
1.0000
  0
VERTEX
  8
21
 10
9.2761
 20
18.0506
 30
0.0000
  0
SEQEND
  8
0
  0
POLYLINE
  8
21
 66
1
 10
0.0000
 20
0.0000
 30
0.0000
 40
0.1016
 41
0.1016
 70
0
  0
VERTEX
  8
21
 10
9.0388
 20
18.0252
 30
0.0000
  0
VERTEX
  8
21
 10
8.9202
 20
17.9066
 30
0.0000
  0
SEQEND
  8
0
  0
POLYLINE
  8
21
 66
1
 10
0.0000
 20
0.0000
 30
0.0000
 40
0.0508
 41
0.0508
 70
0
  0
VERTEX
  8
21
 10
8.9022
 20
17.9245
 30
0.0000
 42
1.0000
  0
VERTEX
  8
21
 10
8.9382
 20
17.8886
 30
0.0000
  0
SEQEND
  8
0
  0
POLYLINE
  8
21
 66
1
 10
0.0000
 20
0.0000
 30
0.0000
 40
0.0508
 41
0.0508
 70
0
  0
VERTEX
  8
21
 10
9.0568
 20
18.0072
 30
0.0000
 42
1.0000
  0
VERTEX
  8
21
 10
9.0209
 20
18.0432
 30
0.0000
  0
SEQEND
  8
0
  0
INSERT
  8
29
  2
RECT
 10
7.8486
 20
18.4912
 30
0.0000
 41
1.4732
 42
2.4892
 43
1.0000
 50
0.0000
  0
INSERT
  8
29
  2
RECT
 10
10.1600
 20
18.4912
 30
0.0000
 41
1.4732
 42
2.4892
 43
1.0000
 50
0.0000
  0
INSERT
  8
29
  2
RECT
 10
12.4714
 20
18.4912
 30
0.0000
 41
1.4732
 42
2.4892
 43
1.0000
 50
0.0000
  0
INSERT
  8
29
  2
RECT
 10
10.1600
 20
24.6890
 30
0.0000
 41
3.8540
 42
2.4540
 43
1.0000
 50
0.0000
  0
INSERT
  8
29
  2
ROUNDV
 10
29.2100
 20
64.7700
 30
0.0000
 41
4.0640
 42
4.0640
 43
1.0000
 50
0.0000
  0
CIRCLE
  8
44
 10
29.2100
 20
64.7700
 30
0.0000
 40
0.6500
  0
INSERT
  8
29
  2
ROUNDV
 10
29.2100
 20
70.4850
 30
0.0000
 41
4.0640
 42
4.0640
 43
1.0000
 50
0.0000
  0
CIRCLE
  8
44
 10
29.2100
 20
70.4850
 30
0.0000
 40
0.7000
  0
ENDSEC
  0
EOF
